<?xml version="1.0" encoding="UTF-8" standalone="no"?>
<!-- Created with Inkscape (http://www.inkscape.org/) -->

<svg
   xmlns:dc="http://purl.org/dc/elements/1.1/"
   xmlns:cc="http://creativecommons.org/ns#"
   xmlns:rdf="http://www.w3.org/1999/02/22-rdf-syntax-ns#"
   xmlns:svg="http://www.w3.org/2000/svg"
   xmlns="http://www.w3.org/2000/svg"
   xmlns:xlink="http://www.w3.org/1999/xlink"
   xmlns:sodipodi="http://sodipodi.sourceforge.net/DTD/sodipodi-0.dtd"
   xmlns:inkscape="http://www.inkscape.org/namespaces/inkscape"
   width="820"
   height="640"
   id="svg4064"
   version="1.1"
   inkscape:version="0.48.5 r10040"
   sodipodi:docname="intro.svg">
  <defs
     id="defs3">
    <linearGradient
       inkscape:collect="always"
       id="linearGradient9677">
      <stop
         style="stop-color:#000000;stop-opacity:1;"
         offset="0"
         id="stop9679" />
      <stop
         style="stop-color:#000000;stop-opacity:0;"
         offset="1"
         id="stop9681" />
    </linearGradient>
    <linearGradient
       id="linearGradient7958">
      <stop
         style="stop-color:#808080;stop-opacity:0;"
         offset="0"
         id="stop7960" />
      <stop
         style="stop-color:#bebebe;stop-opacity:1;"
         offset="1"
         id="stop7962" />
    </linearGradient>
    <marker
       inkscape:stockid="Arrow1Mend"
       orient="auto"
       refY="0"
       refX="0"
       id="Arrow1Mend"
       style="overflow:visible">
      <path
         id="path7289"
         d="M 0,0 5,-5 -12.5,0 5,5 0,0 z"
         style="fill-rule:evenodd;stroke:#000000;stroke-width:1pt"
         transform="matrix(-0.4,0,0,-0.4,-4,0)"
         inkscape:connector-curvature="0" />
    </marker>
    <marker
       inkscape:stockid="Arrow1Send"
       orient="auto"
       refY="0"
       refX="0"
       id="Arrow1Send"
       style="overflow:visible">
      <path
         inkscape:connector-curvature="0"
         id="path4280"
         d="M 0,0 5,-5 -12.5,0 5,5 0,0 z"
         style="fill-rule:evenodd;stroke:#000000;stroke-width:1pt"
         transform="matrix(-0.2,0,0,-0.2,-1.2,0)" />
    </marker>
    <marker
       inkscape:stockid="Arrow1Send"
       orient="auto"
       refY="0"
       refX="0"
       id="marker4898"
       style="overflow:visible">
      <path
         inkscape:connector-curvature="0"
         id="path4900"
         d="M 0,0 5,-5 -12.5,0 5,5 0,0 z"
         style="fill-rule:evenodd;stroke:#000000;stroke-width:1pt"
         transform="matrix(-0.2,0,0,-0.2,-1.2,0)" />
    </marker>
    <marker
       inkscape:stockid="Arrow1Send"
       orient="auto"
       refY="0"
       refX="0"
       id="marker4902"
       style="overflow:visible">
      <path
         inkscape:connector-curvature="0"
         id="path4904"
         d="M 0,0 5,-5 -12.5,0 5,5 0,0 z"
         style="fill-rule:evenodd;stroke:#000000;stroke-width:1pt"
         transform="matrix(-0.2,0,0,-0.2,-1.2,0)" />
    </marker>
    <marker
       inkscape:stockid="Arrow1Send"
       orient="auto"
       refY="0"
       refX="0"
       id="marker4906"
       style="overflow:visible">
      <path
         inkscape:connector-curvature="0"
         id="path4908"
         d="M 0,0 5,-5 -12.5,0 5,5 0,0 z"
         style="fill-rule:evenodd;stroke:#000000;stroke-width:1pt"
         transform="matrix(-0.2,0,0,-0.2,-1.2,0)" />
    </marker>
    <path
       style="fill:none;stroke:#ffffff;stroke-width:1.08733177px;stroke-linecap:butt;stroke-linejoin:miter;stroke-opacity:1"
       d="m 51.428572,766.6479 c 8.905709,2.48271 13.138033,8.91983 15.892857,16.60714"
       id="path4021"
       inkscape:connector-curvature="0"
       inkscape:transform-center-x="1.7857143"
       inkscape:transform-center-y="1.6071428"
       sodipodi:nodetypes="cc" />
    <linearGradient
       id="linearGradient3826">
      <stop
         style="stop-color:#ffffff;stop-opacity:1;"
         offset="0"
         id="stop3828" />
      <stop
         style="stop-color:#ffffff;stop-opacity:0;"
         offset="1"
         id="stop3830" />
    </linearGradient>
    <marker
       inkscape:stockid="Arrow1Send"
       orient="auto"
       refY="0"
       refX="0"
       id="marker4961"
       style="overflow:visible">
      <path
         inkscape:connector-curvature="0"
         id="path4963"
         d="M 0,0 5,-5 -12.5,0 5,5 0,0 z"
         style="fill-rule:evenodd;stroke:#000000;stroke-width:1pt"
         transform="matrix(-0.2,0,0,-0.2,-1.2,0)" />
    </marker>
    <marker
       inkscape:stockid="Arrow1Send"
       orient="auto"
       refY="0"
       refX="0"
       id="marker4965"
       style="overflow:visible">
      <path
         inkscape:connector-curvature="0"
         id="path4967"
         d="M 0,0 5,-5 -12.5,0 5,5 0,0 z"
         style="fill-rule:evenodd;stroke:#000000;stroke-width:1pt"
         transform="matrix(-0.2,0,0,-0.2,-1.2,0)" />
    </marker>
    <marker
       inkscape:stockid="Arrow1Send"
       orient="auto"
       refY="0"
       refX="0"
       id="marker4969"
       style="overflow:visible">
      <path
         inkscape:connector-curvature="0"
         id="path4971"
         d="M 0,0 5,-5 -12.5,0 5,5 0,0 z"
         style="fill-rule:evenodd;stroke:#000000;stroke-width:1pt"
         transform="matrix(-0.2,0,0,-0.2,-1.2,0)" />
    </marker>
    <marker
       inkscape:stockid="Arrow1Send"
       orient="auto"
       refY="0"
       refX="0"
       id="marker4973"
       style="overflow:visible">
      <path
         inkscape:connector-curvature="0"
         id="path4975"
         d="M 0,0 5,-5 -12.5,0 5,5 0,0 z"
         style="fill-rule:evenodd;stroke:#000000;stroke-width:1pt"
         transform="matrix(-0.2,0,0,-0.2,-1.2,0)" />
    </marker>
    <linearGradient
       id="linearGradient3852">
      <stop
         style="stop-color:#000000;stop-opacity:0;"
         offset="0"
         id="stop3854" />
      <stop
         id="stop3862"
         offset="0.08267663"
         style="stop-color:#000000;stop-opacity:1;" />
      <stop
         id="stop3860"
         offset="0.89397442"
         style="stop-color:#000000;stop-opacity:1;" />
      <stop
         style="stop-color:#000000;stop-opacity:0;"
         offset="1"
         id="stop3856" />
    </linearGradient>
    <marker
       inkscape:stockid="Arrow1Send"
       orient="auto"
       refY="0"
       refX="0"
       id="marker4983"
       style="overflow:visible">
      <path
         inkscape:connector-curvature="0"
         id="path4985"
         d="M 0,0 5,-5 -12.5,0 5,5 0,0 z"
         style="fill-rule:evenodd;stroke:#000000;stroke-width:1pt"
         transform="matrix(-0.2,0,0,-0.2,-1.2,0)" />
    </marker>
    <marker
       inkscape:stockid="Arrow1Send"
       orient="auto"
       refY="0"
       refX="0"
       id="marker4987"
       style="overflow:visible">
      <path
         inkscape:connector-curvature="0"
         id="path4989"
         d="M 0,0 5,-5 -12.5,0 5,5 0,0 z"
         style="fill-rule:evenodd;stroke:#000000;stroke-width:1pt"
         transform="matrix(-0.2,0,0,-0.2,-1.2,0)" />
    </marker>
    <marker
       inkscape:stockid="Arrow1Send"
       orient="auto"
       refY="0"
       refX="0"
       id="marker4991"
       style="overflow:visible">
      <path
         inkscape:connector-curvature="0"
         id="path4993"
         d="M 0,0 5,-5 -12.5,0 5,5 0,0 z"
         style="fill-rule:evenodd;stroke:#000000;stroke-width:1pt"
         transform="matrix(-0.2,0,0,-0.2,-1.2,0)" />
    </marker>
    <marker
       inkscape:stockid="Arrow1Send"
       orient="auto"
       refY="0"
       refX="0"
       id="marker4995"
       style="overflow:visible">
      <path
         inkscape:connector-curvature="0"
         id="path4997"
         d="M 0,0 5,-5 -12.5,0 5,5 0,0 z"
         style="fill-rule:evenodd;stroke:#000000;stroke-width:1pt"
         transform="matrix(-0.2,0,0,-0.2,-1.2,0)" />
    </marker>
    <marker
       inkscape:stockid="Arrow1Mend"
       orient="auto"
       refY="0"
       refX="0"
       id="Arrow1Mend-0"
       style="overflow:visible">
      <path
         inkscape:connector-curvature="0"
         id="path7289-5"
         d="M 0,0 5,-5 -12.5,0 5,5 0,0 z"
         style="fill-rule:evenodd;stroke:#000000;stroke-width:1pt"
         transform="matrix(-0.4,0,0,-0.4,-4,0)" />
    </marker>
    <marker
       inkscape:stockid="Arrow1Mend"
       orient="auto"
       refY="0"
       refX="0"
       id="Arrow1Mend-2"
       style="overflow:visible">
      <path
         inkscape:connector-curvature="0"
         id="path7289-0"
         d="M 0,0 5,-5 -12.5,0 5,5 0,0 z"
         style="fill-rule:evenodd;stroke:#000000;stroke-width:1pt"
         transform="matrix(-0.4,0,0,-0.4,-4,0)" />
    </marker>
    <marker
       inkscape:stockid="Arrow1Mend"
       orient="auto"
       refY="0"
       refX="0"
       id="Arrow1Mend-00"
       style="overflow:visible">
      <path
         inkscape:connector-curvature="0"
         id="path7289-7"
         d="M 0,0 5,-5 -12.5,0 5,5 0,0 z"
         style="fill-rule:evenodd;stroke:#000000;stroke-width:1pt"
         transform="matrix(-0.4,0,0,-0.4,-4,0)" />
    </marker>
    <marker
       inkscape:stockid="Arrow1Mend"
       orient="auto"
       refY="0"
       refX="0"
       id="Arrow1Mend-1"
       style="overflow:visible">
      <path
         inkscape:connector-curvature="0"
         id="path7289-1"
         d="M 0,0 5,-5 -12.5,0 5,5 0,0 z"
         style="fill-rule:evenodd;stroke:#000000;stroke-width:1pt"
         transform="matrix(-0.4,0,0,-0.4,-4,0)" />
    </marker>
    <marker
       inkscape:stockid="Arrow1Mend"
       orient="auto"
       refY="0"
       refX="0"
       id="Arrow1Mend-5"
       style="overflow:visible">
      <path
         inkscape:connector-curvature="0"
         id="path7289-59"
         d="M 0,0 5,-5 -12.5,0 5,5 0,0 z"
         style="fill-rule:evenodd;stroke:#000000;stroke-width:1pt"
         transform="matrix(-0.4,0,0,-0.4,-4,0)" />
    </marker>
    <marker
       inkscape:stockid="Arrow1Mend"
       orient="auto"
       refY="0"
       refX="0"
       id="Arrow1Mend-03"
       style="overflow:visible">
      <path
         inkscape:connector-curvature="0"
         id="path7289-56"
         d="M 0,0 5,-5 -12.5,0 5,5 0,0 z"
         style="fill-rule:evenodd;stroke:#000000;stroke-width:1pt"
         transform="matrix(-0.4,0,0,-0.4,-4,0)" />
    </marker>
    <linearGradient
       inkscape:collect="always"
       xlink:href="#linearGradient9677"
       id="linearGradient9683"
       x1="789.922"
       y1="214.85703"
       x2="789.06592"
       y2="221.07013"
       gradientUnits="userSpaceOnUse" />
    <clipPath
       id="clipPath9714"
       clipPathUnits="userSpaceOnUse">
      <path
         id="path9716"
         d="m 0.014999,67.95 141.723001,0 0,-67.95 -141.723001,0 0,67.95 z"
         inkscape:connector-curvature="0" />
    </clipPath>
    <linearGradient
       inkscape:collect="always"
       xlink:href="#linearGradient9677"
       id="linearGradient3290"
       gradientUnits="userSpaceOnUse"
       x1="789.922"
       y1="214.85703"
       x2="789.06592"
       y2="221.07013" />
  </defs>
  <sodipodi:namedview
     inkscape:document-units="mm"
     id="base"
     pagecolor="#ffffff"
     bordercolor="#666666"
     borderopacity="1.0"
     inkscape:pageopacity="0.0"
     inkscape:pageshadow="2"
     inkscape:zoom="1.4142136"
     inkscape:cx="720.40376"
     inkscape:cy="93.955654"
     inkscape:current-layer="g3165"
     showgrid="false"
     showguides="true"
     inkscape:guide-bbox="true"
     units="px"
     height="167mm"
     inkscape:window-width="1440"
     inkscape:window-height="751"
     inkscape:window-x="-8"
     inkscape:window-y="-8"
     inkscape:window-maximized="1">
    <sodipodi:guide
       orientation="1,0"
       position="800.7874,102.75591"
       id="guide3165" />
    <sodipodi:guide
       orientation="0,1"
       position="836.22047,38.976378"
       id="guide3167" />
  </sodipodi:namedview>
  <metadata
     id="metadata4">
    <rdf:RDF>
      <cc:Work
         rdf:about="">
        <dc:format>image/svg+xml</dc:format>
        <dc:type
           rdf:resource="http://purl.org/dc/dcmitype/StillImage" />
        <dc:title />
      </cc:Work>
    </rdf:RDF>
  </metadata>
  <g
     inkscape:label="Layer 1"
     inkscape:groupmode="layer"
     id="layer1"
     transform="translate(0,-412.36221)">
    <text
       xml:space="preserve"
       style="font-size:48.67523956px;font-style:normal;font-variant:normal;font-weight:normal;font-stretch:normal;line-height:125%;letter-spacing:0px;word-spacing:0px;fill:#000000;fill-opacity:1;stroke:none;font-family:Liberation Sans;-inkscape-font-specification:Liberation Sans"
       x="465.53967"
       y="648.86487"
       id="text9613-7"
       sodipodi:linespacing="125%"
       transform="matrix(1,-0.09424202,0,1,0,0)"><tspan
         sodipodi:role="line"
         x="465.53967"
         y="648.86487"
         id="tspan9667"
         style="text-align:center;text-anchor:middle" /></text>
    <g
       id="g3165"
       transform="matrix(0.76957371,0,0,0.76957371,1.830671,238.9063)">
      <g
         transform="translate(121.62237,-90.509668)"
         id="g9685">
        <g
           id="g9596"
           transform="translate(110.30866,22.627417)">
          <path
             sodipodi:nodetypes="cszczzzzc"
             transform="translate(0,237.40158)"
             inkscape:connector-curvature="0"
             id="path8952"
             d="m 185.46967,174.00226 c 0.57992,-6.89869 -1.56292,-25.46497 0.25776,-25.95334 36.71846,-9.84925 32.86247,-27.24223 0.27257,-21.08829 -32.5899,6.15394 -25.73744,36.22331 -5,46 28.91168,13.58965 528.94681,-43.81769 560,-41 31.05319,2.81769 39.25354,8.75585 39,26 -0.25354,17.24415 -34.28646,34.85205 -48,30 -13.71354,-4.85205 -14.66993,-21.74452 -10,-29 4.66993,-7.25548 21,-2 21,-2"
             style="fill:none;stroke:#000000;stroke-width:7.08661413;stroke-linecap:butt;stroke-linejoin:miter;stroke-miterlimit:4;stroke-opacity:1;stroke-dasharray:none" />
          <path
             sodipodi:nodetypes="cc"
             transform="translate(0,237.40158)"
             inkscape:connector-curvature="0"
             id="path8954"
             d="m 211.95526,131.63032 c -1.31655,16.8561 -3.58244,35.7465 -0.45526,43.08031"
             style="fill:none;stroke:#000000;stroke-width:7.08661413;stroke-linecap:butt;stroke-linejoin:miter;stroke-miterlimit:4;stroke-opacity:1;stroke-dasharray:none" />
          <path
             sodipodi:nodetypes="cc"
             transform="translate(0,237.40158)"
             inkscape:connector-curvature="0"
             id="path8956"
             d="m 742.46212,153.99257 c -1.39569,14.67787 -1.90659,31.00304 0.88388,33.58757"
             style="fill:none;stroke:#000000;stroke-width:7.08661413;stroke-linecap:butt;stroke-linejoin:miter;stroke-miterlimit:4;stroke-opacity:1;stroke-dasharray:none" />
          <path
             transform="translate(0,237.40158)"
             inkscape:connector-curvature="0"
             id="path8958"
             d="m 164.25,153.46063 5.45563,320.28976"
             style="fill:none;stroke:#000000;stroke-width:7.08661413;stroke-linecap:butt;stroke-linejoin:miter;stroke-miterlimit:4;stroke-opacity:1;stroke-dasharray:none"
             sodipodi:nodetypes="cc" />
          <path
             sodipodi:nodetypes="ccc"
             transform="translate(0,237.40158)"
             inkscape:connector-curvature="0"
             id="path8960"
             d="m 169.75,473.71063 c 0.56021,8.03805 12.15959,25.49006 31.89949,21.25 l 515.72309,-36.64644"
             style="fill:none;stroke:#000000;stroke-width:7.08661413;stroke-linecap:butt;stroke-linejoin:miter;stroke-miterlimit:4;stroke-opacity:1;stroke-dasharray:none" />
          <path
             transform="translate(0,237.40158)"
             inkscape:connector-curvature="0"
             id="path8962"
             d="m 779.93878,154.5229 0,319.61226"
             style="fill:none;stroke:#000000;stroke-width:7.08661413;stroke-linecap:butt;stroke-linejoin:miter;stroke-miterlimit:4;stroke-opacity:1;stroke-dasharray:none"
             sodipodi:nodetypes="cc" />
          <path
             style="fill:none;stroke:#000000;stroke-width:7.08661413;stroke-linecap:butt;stroke-linejoin:miter;stroke-miterlimit:4;stroke-opacity:1;stroke-dasharray:none"
             d="m 719.18198,407.41246 -4.29703,319.68063 c 29.44181,13.18423 57.76548,6.84505 65.40738,-17.32411"
             id="path9594"
             inkscape:connector-curvature="0"
             sodipodi:nodetypes="ccc" />
        </g>
        <text
           xml:space="preserve"
           style="font-size:48.67523956px;font-style:normal;font-variant:normal;font-weight:normal;font-stretch:normal;line-height:125%;letter-spacing:0px;word-spacing:0px;fill:#000000;fill-opacity:1;stroke:none;font-family:Liberation Sans;-inkscape-font-specification:Liberation Sans"
           x="570.5083"
           y="581.28552"
           id="text9613"
           sodipodi:linespacing="125%"
           transform="matrix(1,-0.09424202,0,1,0,0)"><tspan
             sodipodi:role="line"
             x="570.5083"
             y="581.28552"
             id="tspan9617"
             style="text-align:center;text-anchor:middle">How I have managed</tspan><tspan
             sodipodi:role="line"
             x="570.5083"
             y="642.12958"
             id="tspan9673"
             style="text-align:center;text-anchor:middle">my <tspan
   style="font-weight:bold;-inkscape-font-specification:Liberation Sans Bold"
   id="tspan9675">thesis writing</tspan></tspan><tspan
             sodipodi:role="line"
             x="570.5083"
             y="702.97363"
             id="tspan9671"
             style="text-align:center;text-anchor:middle">process</tspan></text>
      </g>
      <text
         sodipodi:linespacing="125%"
         id="text4070"
         y="1006.3748"
         x="1038.1809"
         style="font-size:40px;font-style:normal;font-variant:normal;font-weight:normal;font-stretch:normal;text-align:end;line-height:125%;letter-spacing:0px;word-spacing:0px;text-anchor:end;fill:#000000;fill-opacity:1;stroke:none;font-family:Liberation Sans;-inkscape-font-specification:Liberation Sans"
         xml:space="preserve"><tspan
           id="tspan6526"
           style="font-size:11.69478607px;font-style:normal;font-weight:bold;text-align:end;text-anchor:end;-inkscape-font-specification:Liberation Sans Bold"
           y="1006.3748"
           x="1038.1809"
           sodipodi:role="line">J.-B. Carré - guest spreaker in the EPFL seminar &quot;Empower your writing process&quot;, 03/09/2015</tspan><tspan
           id="tspan5860"
           style="font-size:11.69478607px;font-style:oblique;text-align:end;text-anchor:end;-inkscape-font-specification:Liberation Sans Oblique"
           y="1021.0284"
           x="1038.1809"
           sodipodi:role="line">Source: <tspan
   style="fill:#0000ff"
   id="tspan3168">https://github.com/speredenn/empower-writing-phd/releases/tag/v1.0.4</tspan></tspan><tspan
           style="font-size:11.69478607px;font-style:oblique;text-align:end;text-anchor:end;-inkscape-font-specification:Liberation Sans Oblique"
           y="1035.647"
           x="1038.1809"
           sodipodi:role="line"
           id="tspan3167">Slide licenced under CC-by 4.0 unported</tspan></text>
      <g
         style="stroke:#000000"
         id="g4657"
         transform="matrix(3.261323,0,0,3.261323,-2214.8861,253.15511)">
        <path
           style="fill:#000000;stroke:#000000;stroke-width:1.70975256;stroke-linecap:butt;stroke-linejoin:miter;stroke-miterlimit:4;stroke-opacity:1;stroke-dasharray:none"
           d="m 770.70704,87.766542 61.09319,4.269957 -6.89762,43.356451 -58.46553,-3.61303 z"
           id="path4000"
           inkscape:connector-curvature="0"
           sodipodi:nodetypes="ccccc" />
        <g
           style="stroke:#000000"
           id="g4026"
           transform="matrix(0.9196825,0,0,0.9196825,663.11853,-629.5621)">
          <path
             sodipodi:nodetypes="ccccccc"
             inkscape:connector-curvature="0"
             id="path4011"
             d="m 22.097087,786.7552 30.938627,-29.75016 c 0.928098,-0.903 2.437273,-0.69713 3.303572,-0.40179 l 1.874999,6.11608 L 36.25,787.18361 21.11104,792.15855 c -0.21097,-1.73522 -0.256207,-3.36249 0.986047,-5.40335 z"
             style="fill:#ffffff;stroke:#000000;stroke-width:1.85906827;stroke-linecap:butt;stroke-linejoin:bevel;stroke-miterlimit:4;stroke-opacity:1;stroke-dasharray:none" />
          <path
             sodipodi:nodetypes="cccccc"
             inkscape:connector-curvature="0"
             id="path4009"
             d="m 26.642773,785.87132 c -4.191741,0.52804 -4.053354,3.65415 -5.113897,6.06091 12.013943,6.25057 17.679044,15.32284 23.828267,24.17995 l 6.785714,-8.39285 -10.535714,-20.71429 z"
             style="fill:#ffffff;stroke:#000000;stroke-width:1.85906827;stroke-linecap:butt;stroke-linejoin:miter;stroke-miterlimit:4;stroke-opacity:1;stroke-dasharray:none" />
          <path
             sodipodi:nodetypes="cccccc"
             inkscape:connector-curvature="0"
             id="path4013"
             d="M 43.928571,813.07647 C 37.606947,803.51196 32.184126,798.01559 21.25,791.20147 c 0.306462,-3.62125 3.369207,-5.09231 5.803571,-7.05357 l 18.839286,8.21428 3.392857,16.16072 c -3.874079,-0.44277 -5.050521,1.66048 -5.357143,4.55357 z"
             style="fill:#ffffff;stroke:#000000;stroke-width:0.92953414px;stroke-linecap:butt;stroke-linejoin:miter;stroke-opacity:1" />
          <path
             sodipodi:nodetypes="ccccc"
             inkscape:connector-curvature="0"
             id="path4007"
             d="m 56.607143,756.6479 c 17.174259,4.94002 19.120884,14.08077 23.035714,22.67857 L 49.821428,809.86218 C 45.842827,799.80814 38.847452,791.35121 26.785714,785.57647 z"
             style="fill:#ffffff;stroke:#000000;stroke-width:1.85906827;stroke-linecap:butt;stroke-linejoin:miter;stroke-miterlimit:4;stroke-opacity:1;stroke-dasharray:none" />
          <path
             sodipodi:nodetypes="cc"
             inkscape:connector-curvature="0"
             id="path4015"
             d="m 27.008928,786.42468 c -2.642391,1.16433 -3.921732,3.27115 -4.6875,5.49108"
             style="fill:none;stroke:#000000;stroke-width:0.92953414px;stroke-linecap:butt;stroke-linejoin:miter;stroke-opacity:1" />
          <path
             sodipodi:nodetypes="cc"
             inkscape:transform-center-y="1.6071428"
             inkscape:transform-center-x="1.7857143"
             inkscape:connector-curvature="0"
             id="path5126"
             d="m 51.428572,766.6479 c 8.905709,2.48271 13.138033,8.91983 15.892857,16.60714"
             style="fill:#ffffff;stroke:#ffffff;stroke-width:0.92953414px;stroke-linecap:butt;stroke-linejoin:miter;stroke-opacity:1" />
          <text
             transform="translate(1.25,1.4285714)"
             sodipodi:linespacing="125%"
             id="text4017"
             style="font-size:7.41641378px;font-style:normal;font-variant:normal;font-weight:normal;font-stretch:normal;line-height:125%;letter-spacing:0px;word-spacing:0px;fill:#000000;fill-opacity:1;stroke:none;font-family:Liberation Sans;-inkscape-font-specification:Liberation Sans"
             xml:space="preserve"><textPath
               style="fill:#000000;stroke:none"
               id="textPath4023"
               xlink:href="#path4021">Thesis</textPath></text>
        </g>
        <path
           style="fill:#ffffff;stroke:url(#linearGradient3290);stroke-width:1.70975256;stroke-linecap:butt;stroke-linejoin:miter;stroke-miterlimit:4;stroke-opacity:1;stroke-dasharray:none"
           d="m 817.69443,226.1377 c 0.37331,-5.55687 0.0368,-7.35564 -0.23227,-32.05117 34.53714,-31.78714 41.60695,-62.59734 50.63158,-91.97294 -17.93412,45.58668 -84.94185,98.8657 -151.4302,-3.716079 11.32121,31.269609 20.31074,63.620699 43.66392,87.095589 1.75696,23.41687 -0.0693,23.34354 -1.85804,34.60599"
           id="path5716"
           inkscape:connector-curvature="0"
           sodipodi:nodetypes="cccccc" />
        <path
           style="fill:none;stroke:#000000;stroke-width:1.70975256;stroke-linecap:butt;stroke-linejoin:miter;stroke-miterlimit:4;stroke-opacity:1;stroke-dasharray:none"
           d="m 779.72075,154.83546 9.7547,33.79309 18.11588,-31.7028"
           id="path5718"
           inkscape:connector-curvature="0" />
        <path
           style="fill:#000000;stroke:#000000;stroke-width:0.85487628px;stroke-linecap:butt;stroke-linejoin:miter;stroke-opacity:1"
           d="m 793.44028,157.27413 -7.68091,16.02559 3.25157,14.74818 8.0128,-13.47078 z"
           id="path5720"
           inkscape:connector-curvature="0"
           sodipodi:nodetypes="ccccc" />
        <path
           sodipodi:type="arc"
           style="fill:#ffffff;fill-opacity:1;stroke:#000000;stroke-width:1.85906827;stroke-miterlimit:4;stroke-opacity:1;stroke-dasharray:none"
           id="path3160"
           sodipodi:cx="146.96428"
           sodipodi:cy="812.89789"
           sodipodi:rx="25.178572"
           sodipodi:ry="26.785713"
           d="m 172.14285,812.89789 c 0,14.79334 -11.27283,26.78571 -25.17857,26.78571 -13.90574,0 -25.17857,-11.99237 -25.17857,-26.78571 0,-14.79334 11.27283,-26.78572 25.17857,-26.78572 13.90574,0 25.17857,11.99238 25.17857,26.78572 z"
           transform="matrix(0.9196825,0,0,0.9196825,662.31589,-626.50294)" />
        <path
           style="fill:none;stroke:#000000;stroke-width:1.70975256;stroke-linecap:round;stroke-linejoin:round;stroke-miterlimit:4;stroke-opacity:1;stroke-dasharray:none"
           d="m 783.84537,126.52458 c 4.36062,10.444 16.4724,15.01325 25.29126,4.26996"
           id="path3162"
           inkscape:connector-curvature="0"
           sodipodi:nodetypes="cc" />
        <path
           style="fill:none;stroke:#000000;stroke-width:1.70975256;stroke-linecap:butt;stroke-linejoin:miter;stroke-miterlimit:4;stroke-opacity:1;stroke-dasharray:none"
           d="m 775.41987,113.791 c 8.93717,-15.456809 38.24543,-13.79452 44.98225,3.30452 L 819.97575,99.262574 782.85999,92.69341 z"
           id="path4002"
           inkscape:connector-curvature="0"
           sodipodi:nodetypes="ccccc" />
        <path
           sodipodi:nodetypes="cccccc"
           inkscape:connector-curvature="0"
           id="path4428"
           d="m 766.2007,141.70967 3.78807,-1.51523 2.33412,3.06109 c 0.98004,-3.52113 1.84828,-6.25558 2.25752,-11.32088 l -5.45385,-0.57904 c -0.5604,4.21087 -0.83405,6.88476 -2.92586,10.35406 z"
           style="fill:#000000;stroke:#000000;stroke-width:0.85487628px;stroke-linecap:butt;stroke-linejoin:miter;stroke-opacity:1" />
      </g>
      <g
         id="g9708"
         inkscape:label="EPFL-Logo-CMJN"
         transform="matrix(1.6491486,0,0,-1.6491486,804.67795,969.48809)">
        <g
           id="g9710">
          <g
             id="g9712"
             clip-path="url(#clipPath9714)">
            <g
               id="g9718"
               transform="translate(45.894,27.905)">
              <path
                 inkscape:connector-curvature="0"
                 d="m 0,0 c 0,0 -11.859,16.34 0,40.058 l -45.605,0 L -45.605,0 0,0"
                 style="fill:#ed1c24;fill-opacity:1;fill-rule:nonzero;stroke:none"
                 id="path9720" />
            </g>
            <g
               id="g9722"
               transform="translate(100.936,27.884)">
              <path
                 inkscape:connector-curvature="0"
                 d="m 0,0 c -6.028,9.586 -5.633,18.182 -5.633,18.182 l -0.025,21.898 46.349,0 L 40.654,0.003 0,0"
                 style="fill:#ed1c24;fill-opacity:1;fill-rule:nonzero;stroke:none"
                 id="path9724" />
            </g>
            <g
               id="g9726"
               transform="translate(55.446,67.964)">
              <path
                 inkscape:connector-curvature="0"
                 d="m 0,0 c 0,0 -5.237,-9.141 -5.434,-17.739 l 4.841,0 0,-4.149 -5.04,0 c 0,0 -0.395,-8.599 5.633,-18.183 l -4.892,0 c 0,0 -11.857,16.353 0,40.071 L 0,0"
                 style="fill:#231f20;fill-opacity:1;fill-rule:nonzero;stroke:none"
                 id="path9728" />
            </g>
            <g
               id="g9730"
               transform="translate(73.779,27.886)">
              <path
                 inkscape:connector-curvature="0"
                 d="m 0,0 4.613,0 0,18.181 4.923,0 0,4.151 -4.845,0 c 0.198,8.597 5.436,17.738 5.436,17.738 l -4.889,0 C 1.476,32.551 0.101,25.77 -0.023,20.017 L 0,0"
                 style="fill:#231f20;fill-opacity:1;fill-rule:nonzero;stroke:none"
                 id="path9732" />
            </g>
            <g
               id="g9734"
               transform="translate(90.603,46.066)">
              <path
                 inkscape:connector-curvature="0"
                 d="m 0,0 c 0,0 -0.398,-8.597 5.631,-18.182 l -4.893,0 c 0,0 -5.531,7.627 -5.257,20.02 l 0,20.059 4.494,0 L 0,0"
                 style="fill:#231f20;fill-opacity:1;fill-rule:nonzero;stroke:none"
                 id="path9736" />
            </g>
            <path
               inkscape:connector-curvature="0"
               d="m 58.469,27.886 4.5454,0 0,40.064 -4.5454,0 0,-40.064 z"
               style="fill:#231f20;fill-opacity:1;fill-rule:nonzero;stroke:none"
               id="path9738" />
            <g
               id="g9740"
               transform="translate(69.141,67.964)">
              <path
                 inkscape:connector-curvature="0"
                 d="m 0,0 -4.841,0 c 0,0 7.61,-9.981 0,-20.061 l 4.841,0 c 0,0 7.169,9.476 0,20.061"
                 style="fill:#231f20;fill-opacity:1;fill-rule:nonzero;stroke:none"
                 id="path9742" />
            </g>
            <g
               id="g9744"
               transform="translate(0.92927,17.921)">
              <path
                 inkscape:connector-curvature="0"
                 d="m 0,0 c 0,1.664 0,1.965 -0.02212,2.306 -0.02121,0.362 -0.10659,0.533 -0.45843,0.608 -0.08628,0.021 -0.26691,0.033 -0.36289,0.033 -0.04251,0 -0.08583,0.02 -0.08583,0.064 0,0.064 0.05348,0.087 0.17121,0.087 0.48017,0 1.15196,-0.034 1.20546,-0.034 0.0744,0 2.1977,0 2.4438,0.011 C 3.093,3.085 3.2643,3.109 3.3484,3.129 3.4019,3.139 3.4453,3.18 3.4979,3.18 3.5303,3.18 3.5418,3.139 3.5418,3.085 3.5418,3.011 3.4882,2.883 3.4559,2.583 3.4453,2.477 3.424,2.007 3.4019,1.879 3.3921,1.825 3.3705,1.76 3.3275,1.76 3.2643,1.76 3.2435,1.814 3.2435,1.9 3.2435,1.975 3.232,2.158 3.178,2.285 3.1037,2.455 2.9974,2.583 2.4212,2.645 2.2393,2.668 1.0772,2.678 0.9594,2.678 0.917,2.678 0.8953,2.645 0.8953,2.57 l 0,-2.94 c 0,-0.076 0.011,-0.108 0.0641,-0.108 0.1386,0 1.4507,0 1.6963,0.021 0.2563,0.022 0.4059,0.045 0.5014,0.149 0.0749,0.083 0.1168,0.136 0.1607,0.136 0.0306,0 0.0527,-0.021 0.0527,-0.085 0,-0.058 -0.0527,-0.242 -0.085,-0.596 -0.0212,-0.216 -0.042,-0.606 -0.042,-0.68 0,-0.088 0,-0.205 -0.0753,-0.205 -0.0535,0 -0.0752,0.042 -0.0752,0.097 0,0.108 0,0.214 -0.0429,0.352 -0.0421,0.147 -0.1381,0.328 -0.5541,0.37 -0.289,0.034 -1.3445,0.055 -1.5263,0.055 -0.0527,0 -0.0744,-0.032 -0.0744,-0.074 l 0,-0.94 c 0,-0.359 -0.0106,-1.599 0,-1.825 0.0314,-0.735 0.1925,-0.875 1.2374,-0.875 0.2774,0 0.747,0 1.0244,0.119 0.2776,0.117 0.4054,0.333 0.4802,0.766 0.0213,0.119 0.0425,0.162 0.0956,0.162 0.0642,0 0.0642,-0.085 0.0642,-0.162 0,-0.083 -0.085,-0.808 -0.1385,-1.03 -0.0749,-0.28 -0.1607,-0.28 -0.5762,-0.28 -1.6109,0 -2.3261,0.066 -2.635,0.066 -0.0535,0 -0.72529,-0.032 -1.04477,-0.032 -0.11864,0 -0.17129,0.021 -0.17129,0.085 0,0.032 0.0212,0.066 0.08536,0.066 0.09563,0 0.22396,0.021 0.31958,0.042 0.21417,0.043 0.26683,0.275 0.30979,0.584 C 0,-3.746 0,-2.901 0,-1.878 L 0,0 z m 3.093,4.546 c 0.0535,-0.097 0,-0.128 -0.0429,-0.128 -0.0315,0 -0.1381,0.02 -0.32,0 C 2.207,4.364 1.4617,4.12 1.1086,3.971 1.0343,3.941 0.9697,3.918 0.9488,3.918 c -0.0221,0 -0.0535,0.023 -0.0535,0.065 0,0.031 0.0217,0.051 0.0744,0.082 0.3845,0.265 1.3772,0.866 1.4515,0.908 0.181,0.108 0.2452,0.139 0.2987,0.139 0.0315,0 0.0536,-0.021 0.1062,-0.096 C 2.9004,4.909 2.9753,4.76 3.093,4.546"
                 style="fill:#231f20;fill-opacity:1;fill-rule:nonzero;stroke:none"
                 id="path9746" />
            </g>
          </g>
        </g>
        <g
           id="g9748"
           transform="translate(7.5109,13.954)">
          <path
             inkscape:connector-curvature="0"
             d="m 0,0 c -1.0347,0.931 -1.291,2.142 -1.291,3.156 0,0.715 0.2453,1.965 1.1949,2.916 0.64,0.637 1.6113,1.14 3.2531,1.14 0.427,0 1.025,-0.033 1.547,-0.129 C 5.11,7.01 5.452,6.944 5.793,6.925 5.91,6.914 5.931,6.87 5.931,6.806 5.931,6.72 5.9,6.592 5.878,6.209 5.857,5.857 5.857,5.272 5.846,5.111 5.835,4.949 5.814,4.884 5.75,4.884 5.676,4.884 5.664,4.96 5.664,5.111 5.664,5.527 5.493,5.964 5.216,6.199 4.843,6.516 4.022,6.806 3.082,6.806 1.6644,6.806 1.0023,6.389 0.6297,6.029 -0.1496,5.282 -0.3315,4.332 -0.3315,3.243 c 0,-2.039 1.5693,-3.907 3.8515,-3.907 0.801,0 1.43,0.096 1.857,0.536 C 5.6,0.108 5.739,0.575 5.771,0.768 5.793,0.887 5.814,0.931 5.878,0.931 5.931,0.931 5.953,0.855 5.953,0.768 5.953,0.692 5.824,-0.234 5.717,-0.6 5.654,-0.798 5.633,-0.82 5.44,-0.905 5.015,-1.076 4.203,-1.152 3.52,-1.152 1.9202,-1.152 0.843,-0.756 0,0"
             style="fill:#231f20;fill-opacity:1;fill-rule:nonzero;stroke:none"
             id="path9750" />
        </g>
        <g
           id="g9752"
           transform="translate(14.807,16.992)">
          <path
             inkscape:connector-curvature="0"
             d="m 0,0 c 0,-1.919 1.217,-4.19 4.139,-4.19 2.572,0 4.258,1.975 4.258,4.363 0,2.484 -1.793,4.001 -4.193,4.001 C 1.26,4.174 0,1.729 0,0 z m 1.014,0.301 c 0,2.335 1.334,3.511 3.115,3.511 1.686,0 3.244,-1.378 3.244,-3.939 0,-3.104 -1.985,-3.658 -2.945,-3.658 -1.921,0 -3.414,1.602 -3.414,4.086"
             style="fill:#231f20;fill-opacity:1;fill-rule:nonzero;stroke:none"
             id="path9754" />
        </g>
        <g
           id="g9756"
           transform="translate(26.681,16.022)">
          <path
             inkscape:connector-curvature="0"
             d="m 0,0 c 0,-1.567 0.043,-2.25 0.235,-2.443 0.171,-0.17 0.448,-0.246 1.28,-0.246 0.565,0 1.034,0.011 1.29,0.322 0.139,0.172 0.246,0.439 0.278,0.639 0.011,0.085 0.032,0.138 0.097,0.138 0.053,0 0.063,-0.042 0.063,-0.161 0,-0.115 -0.075,-0.756 -0.16,-1.064 -0.075,-0.246 -0.106,-0.288 -0.672,-0.288 -1.536,0 -2.241,0.065 -2.86,0.065 -0.095,0 -0.725,-0.032 -1.045,-0.032 -0.117,0 -0.17,0.022 -0.17,0.086 0,0.031 0.02,0.065 0.086,0.065 0.095,0 0.223,0.021 0.319,0.043 0.214,0.042 0.266,0.274 0.309,0.584 0.054,0.446 0.054,1.29 0.054,2.313 l 0,1.878 c 0,1.664 0,1.965 -0.021,2.306 -0.022,0.362 -0.107,0.534 -0.459,0.608 -0.086,0.021 -0.268,0.034 -0.363,0.034 -0.043,0 -0.086,0.019 -0.086,0.064 0,0.063 0.054,0.086 0.172,0.086 0.479,0 1.151,-0.033 1.204,-0.033 0.054,0 0.833,0.033 1.154,0.033 0.116,0 0.17,-0.023 0.17,-0.086 C 0.875,4.866 0.833,4.847 0.79,4.847 0.714,4.847 0.565,4.834 0.437,4.813 0.128,4.76 0.043,4.578 0.021,4.205 0,3.864 0,3.563 0,1.899 L 0,0"
             style="fill:#231f20;fill-opacity:1;fill-rule:nonzero;stroke:none"
             id="path9758" />
        </g>
        <g
           id="g9760"
           transform="translate(32.1,17.921)">
          <path
             inkscape:connector-curvature="0"
             d="m 0,0 c 0,1.664 0,1.965 -0.021,2.306 -0.022,0.362 -0.107,0.533 -0.459,0.608 -0.085,0.021 -0.266,0.033 -0.363,0.033 -0.042,0 -0.085,0.02 -0.085,0.064 0,0.064 0.054,0.087 0.171,0.087 0.48,0 1.152,-0.034 1.205,-0.034 0.075,0 2.198,0 2.444,0.011 C 3.094,3.085 3.265,3.109 3.35,3.129 3.404,3.139 3.446,3.18 3.5,3.18 3.532,3.18 3.541,3.139 3.541,3.085 3.541,3.011 3.489,2.883 3.457,2.583 3.446,2.477 3.425,2.007 3.404,1.879 3.392,1.825 3.371,1.76 3.329,1.76 3.265,1.76 3.244,1.814 3.244,1.9 3.244,1.975 3.233,2.158 3.18,2.285 3.104,2.455 2.998,2.583 2.422,2.645 2.24,2.668 1.078,2.678 0.961,2.678 0.918,2.678 0.896,2.645 0.896,2.57 l 0,-2.94 c 0,-0.076 0.011,-0.108 0.065,-0.108 0.137,0 1.451,0 1.695,0.021 0.257,0.022 0.406,0.045 0.502,0.149 0.075,0.083 0.118,0.136 0.159,0.136 0.033,0 0.054,-0.021 0.054,-0.085 0,-0.058 -0.054,-0.242 -0.084,-0.596 -0.022,-0.216 -0.043,-0.606 -0.043,-0.68 0,-0.088 0,-0.205 -0.075,-0.205 -0.054,0 -0.075,0.042 -0.075,0.097 0,0.108 0,0.214 -0.042,0.352 -0.043,0.147 -0.139,0.328 -0.556,0.37 -0.288,0.034 -1.344,0.055 -1.525,0.055 -0.053,0 -0.075,-0.032 -0.075,-0.074 l 0,-0.94 c 0,-0.359 -0.01,-1.599 0,-1.825 0.032,-0.735 0.193,-0.875 1.238,-0.875 0.278,0 0.746,0 1.024,0.119 0.278,0.117 0.406,0.333 0.48,0.766 0.022,0.119 0.043,0.162 0.097,0.162 0.063,0 0.063,-0.085 0.063,-0.162 0,-0.083 -0.085,-0.808 -0.138,-1.03 -0.074,-0.28 -0.16,-0.28 -0.577,-0.28 -1.61,0 -2.325,0.066 -2.635,0.066 -0.053,0 -0.725,-0.032 -1.045,-0.032 -0.117,0 -0.171,0.021 -0.171,0.085 0,0.032 0.022,0.066 0.086,0.066 0.096,0 0.224,0.021 0.32,0.042 0.212,0.043 0.266,0.275 0.309,0.584 C 0,-3.746 0,-2.901 0,-1.878 L 0,0"
             style="fill:#231f20;fill-opacity:1;fill-rule:nonzero;stroke:none"
             id="path9762" />
        </g>
        <g
           id="g9764"
           transform="translate(42.076,17.921)">
          <path
             inkscape:connector-curvature="0"
             d="m 0,0 c 0,1.664 0,1.965 -0.021,2.306 -0.021,0.362 -0.107,0.533 -0.46,0.608 -0.084,0.021 -0.266,0.033 -0.361,0.033 -0.043,0 -0.087,0.02 -0.087,0.064 0,0.064 0.054,0.087 0.171,0.087 0.48,0 1.12,-0.034 1.206,-0.034 0.234,0 0.853,0.034 1.344,0.034 1.334,0 1.814,-0.453 1.984,-0.611 C 4.012,2.264 4.31,1.783 4.31,1.22 c 0,-1.517 -1.109,-2.54 -2.624,-2.54 -0.054,0 -0.171,0 -0.224,0.012 -0.054,0 -0.118,0.019 -0.118,0.074 0,0.082 0.064,0.092 0.288,0.092 1.034,0 1.846,0.761 1.846,1.742 0,0.351 -0.032,1.064 -0.597,1.642 C 2.315,2.817 1.664,2.775 1.419,2.775 1.238,2.775 1.056,2.753 0.96,2.71 0.896,2.689 0.874,2.615 0.874,2.508 l 0,-4.386 c 0,-1.023 0,-1.868 0.054,-2.314 0.032,-0.309 0.096,-0.541 0.416,-0.584 0.149,-0.021 0.384,-0.042 0.481,-0.042 0.063,0 0.085,-0.034 0.085,-0.066 0,-0.053 -0.054,-0.085 -0.171,-0.085 -0.587,0 -1.259,0.032 -1.312,0.032 -0.032,0 -0.705,-0.032 -1.024,-0.032 -0.118,0 -0.171,0.021 -0.171,0.085 0,0.032 0.021,0.066 0.085,0.066 0.096,0 0.224,0.021 0.32,0.042 0.213,0.043 0.267,0.275 0.309,0.584 C 0,-3.746 0,-2.901 0,-1.878 L 0,0"
             style="fill:#231f20;fill-opacity:1;fill-rule:nonzero;stroke:none"
             id="path9766" />
        </g>
        <g
           id="g9768"
           transform="translate(47.708,16.992)">
          <path
             inkscape:connector-curvature="0"
             d="m 0,0 c 0,-1.919 1.216,-4.19 4.139,-4.19 2.572,0 4.258,1.975 4.258,4.363 0,2.484 -1.793,4.001 -4.193,4.001 C 1.26,4.174 0,1.729 0,0 z m 1.014,0.301 c 0,2.335 1.334,3.511 3.115,3.511 1.686,0 3.243,-1.378 3.243,-3.939 0,-3.104 -1.984,-3.658 -2.944,-3.658 -1.921,0 -3.414,1.602 -3.414,4.086"
             style="fill:#231f20;fill-opacity:1;fill-rule:nonzero;stroke:none"
             id="path9770" />
        </g>
        <g
           id="g9772"
           transform="translate(59.369,16.022)">
          <path
             inkscape:connector-curvature="0"
             d="m 0,0 c 0,-1.567 0.042,-2.25 0.234,-2.443 0.17,-0.17 0.449,-0.246 1.28,-0.246 0.567,0 1.035,0.011 1.291,0.322 0.14,0.172 0.246,0.439 0.277,0.639 0.011,0.085 0.033,0.138 0.097,0.138 0.052,0 0.064,-0.042 0.064,-0.161 0,-0.115 -0.074,-0.756 -0.161,-1.064 -0.075,-0.246 -0.105,-0.288 -0.672,-0.288 -1.535,0 -2.24,0.065 -2.859,0.065 -0.095,0 -0.725,-0.032 -1.045,-0.032 -0.117,0 -0.17,0.022 -0.17,0.086 0,0.031 0.021,0.065 0.084,0.065 0.097,0 0.224,0.021 0.322,0.043 0.213,0.042 0.266,0.274 0.308,0.584 0.054,0.446 0.054,1.29 0.054,2.313 l 0,1.878 c 0,1.664 0,1.965 -0.022,2.306 -0.021,0.362 -0.106,0.534 -0.459,0.608 -0.084,0.021 -0.266,0.034 -0.362,0.034 -0.043,0 -0.086,0.019 -0.086,0.064 0,0.063 0.053,0.086 0.171,0.086 0.48,0 1.152,-0.033 1.205,-0.033 0.054,0 0.833,0.033 1.153,0.033 0.117,0 0.171,-0.023 0.171,-0.086 C 0.875,4.866 0.831,4.847 0.79,4.847 0.714,4.847 0.565,4.834 0.436,4.813 0.128,4.76 0.042,4.578 0.021,4.205 0,3.864 0,3.563 0,1.899 L 0,0"
             style="fill:#231f20;fill-opacity:1;fill-rule:nonzero;stroke:none"
             id="path9774" />
        </g>
        <g
           id="g9776"
           transform="translate(65.759,15.716)">
          <path
             inkscape:connector-curvature="0"
             d="m 0,0 c 0,0.575 -0.106,0.809 -0.246,1.117 -0.074,0.17 -1.504,2.52 -1.877,3.074 -0.268,0.395 -0.534,0.659 -0.726,0.789 -0.159,0.108 -0.362,0.173 -0.459,0.173 -0.054,0 -0.105,0.019 -0.105,0.074 0,0.043 0.041,0.076 0.137,0.076 0.203,0 1.003,-0.033 1.056,-0.033 0.075,0 0.481,0.033 0.896,0.033 0.119,0 0.14,-0.033 0.14,-0.076 0,-0.044 -0.065,-0.055 -0.161,-0.097 -0.084,-0.042 -0.137,-0.107 -0.137,-0.191 0,-0.131 0.053,-0.257 0.137,-0.418 0.171,-0.308 1.772,-3.06 1.963,-3.372 0.203,0.449 1.558,2.784 1.771,3.138 0.14,0.224 0.18,0.406 0.18,0.544 0,0.149 -0.04,0.267 -0.17,0.299 C 2.305,5.164 2.24,5.183 2.24,5.238 c 0,0.043 0.065,0.065 0.171,0.065 0.277,0 0.618,-0.033 0.704,-0.033 0.064,0 0.832,0.033 1.033,0.033 0.076,0 0.141,-0.022 0.141,-0.065 C 4.289,5.183 4.235,5.153 4.148,5.153 4.033,5.153 3.83,5.109 3.658,5.001 3.445,4.873 3.328,4.744 3.093,4.46 2.742,4.031 1.247,1.524 1.055,1.064 0.896,0.681 0.896,0.349 0.896,0 l 0,-0.919 c 0,-0.17 0,-0.621 0.032,-1.067 0.022,-0.31 0.116,-0.542 0.438,-0.584 0.148,-0.021 0.383,-0.043 0.479,-0.043 0.063,0 0.085,-0.033 0.085,-0.065 0,-0.053 -0.052,-0.085 -0.17,-0.085 -0.586,0 -1.258,0.032 -1.312,0.032 -0.054,0 -0.727,-0.032 -1.046,-0.032 -0.118,0 -0.17,0.021 -0.17,0.085 0,0.032 0.021,0.065 0.084,0.065 0.097,0 0.224,0.022 0.321,0.043 0.214,0.042 0.309,0.274 0.33,0.584 C 0,-1.54 0,-1.089 0,-0.919 L 0,0"
             style="fill:#231f20;fill-opacity:1;fill-rule:nonzero;stroke:none"
             id="path9778" />
        </g>
        <g
           id="g9780"
           transform="translate(74.038,16.043)">
          <path
             inkscape:connector-curvature="0"
             d="M 0,0 C 0,-1.023 0,-1.868 0.051,-2.314 0.083,-2.623 0.149,-2.855 0.469,-2.898 0.62,-2.919 0.853,-2.94 0.947,-2.94 c 0.065,0 0.085,-0.034 0.085,-0.066 0,-0.053 -0.053,-0.085 -0.167,-0.085 -0.588,0 -1.258,0.032 -1.311,0.032 -0.055,0 -0.726,-0.032 -1.048,-0.032 -0.119,0 -0.172,0.022 -0.172,0.085 0,0.032 0.021,0.066 0.085,0.066 0.098,0 0.227,0.021 0.322,0.042 0.213,0.043 0.268,0.275 0.308,0.584 0.055,0.446 0.055,1.291 0.055,2.314 l 0,4.514 -1.581,-0.021 C -3.137,4.48 -3.392,4.406 -3.562,4.151 -3.681,3.971 -3.713,3.896 -3.745,3.821 -3.777,3.735 -3.809,3.714 -3.852,3.714 c -0.032,0 -0.054,0.032 -0.054,0.096 0,0.107 0.214,1.026 0.236,1.111 0.021,0.066 0.064,0.202 0.108,0.202 0.073,0 0.18,-0.105 0.469,-0.128 0.308,-0.031 0.713,-0.053 0.842,-0.053 l 4.001,0 c 0.682,0 0.967,0.106 1.054,0.106 0.055,0 0.055,-0.061 0.055,-0.127 0,-0.32 -0.032,-1.057 -0.032,-1.175 0,-0.096 -0.032,-0.14 -0.076,-0.14 -0.053,0 -0.074,0.032 -0.087,0.182 L 2.654,3.907 C 2.615,4.226 2.37,4.47 1.345,4.493 L 0,4.514 0,0"
             style="fill:#231f20;fill-opacity:1;fill-rule:nonzero;stroke:none"
             id="path9782" />
        </g>
        <g
           id="g9784"
           transform="translate(79.136,17.921)">
          <path
             inkscape:connector-curvature="0"
             d="m 0,0 c 0,1.664 0,1.965 -0.019,2.306 -0.022,0.362 -0.107,0.533 -0.461,0.608 -0.085,0.021 -0.265,0.033 -0.363,0.033 -0.042,0 -0.083,0.02 -0.083,0.064 0,0.064 0.051,0.087 0.169,0.087 0.479,0 1.152,-0.034 1.205,-0.034 0.077,0 2.198,0 2.443,0.011 0.202,0.01 0.375,0.034 0.462,0.054 C 3.406,3.139 3.448,3.18 3.502,3.18 3.533,3.18 3.541,3.139 3.541,3.085 3.541,3.011 3.489,2.883 3.459,2.583 3.448,2.477 3.427,2.007 3.406,1.879 3.394,1.825 3.374,1.76 3.331,1.76 3.266,1.76 3.243,1.814 3.243,1.9 3.243,1.975 3.234,2.158 3.179,2.285 3.106,2.455 2.999,2.583 2.423,2.645 2.241,2.668 1.077,2.678 0.96,2.678 0.918,2.678 0.896,2.645 0.896,2.57 l 0,-2.94 c 0,-0.076 0.011,-0.108 0.064,-0.108 0.138,0 1.453,0 1.698,0.021 0.254,0.022 0.404,0.045 0.501,0.149 0.075,0.083 0.118,0.136 0.162,0.136 0.032,0 0.053,-0.021 0.053,-0.085 0,-0.058 -0.053,-0.242 -0.087,-0.596 -0.021,-0.216 -0.044,-0.606 -0.044,-0.68 0,-0.088 0,-0.205 -0.072,-0.205 -0.055,0 -0.078,0.042 -0.078,0.097 0,0.108 0,0.214 -0.039,0.352 -0.045,0.147 -0.142,0.328 -0.556,0.37 -0.288,0.034 -1.346,0.055 -1.525,0.055 -0.055,0 -0.077,-0.032 -0.077,-0.074 l 0,-0.94 c 0,-0.359 -0.009,-1.599 0,-1.825 0.033,-0.735 0.192,-0.875 1.237,-0.875 0.28,0 0.745,0 1.026,0.119 0.279,0.117 0.406,0.333 0.48,0.766 0.022,0.119 0.044,0.162 0.095,0.162 0.063,0 0.063,-0.085 0.063,-0.162 0,-0.083 -0.085,-0.808 -0.136,-1.03 -0.075,-0.28 -0.159,-0.28 -0.577,-0.28 -1.61,0 -2.325,0.066 -2.636,0.066 -0.053,0 -0.726,-0.032 -1.046,-0.032 -0.114,0 -0.168,0.021 -0.168,0.085 0,0.032 0.021,0.066 0.084,0.066 0.094,0 0.224,0.021 0.32,0.042 0.215,0.043 0.268,0.275 0.311,0.584 C 0,-3.746 0,-2.901 0,-1.878 L 0,0"
             style="fill:#231f20;fill-opacity:1;fill-rule:nonzero;stroke:none"
             id="path9786" />
        </g>
        <g
           id="g9788"
           transform="translate(85.717,13.954)">
          <path
             inkscape:connector-curvature="0"
             d="m 0,0 c -1.035,0.931 -1.29,2.142 -1.29,3.156 0,0.715 0.244,1.965 1.193,2.916 0.642,0.637 1.612,1.14 3.259,1.14 0.424,0 1.019,-0.033 1.547,-0.129 C 5.109,7.01 5.454,6.944 5.796,6.925 5.909,6.914 5.932,6.87 5.932,6.806 5.932,6.72 5.898,6.592 5.881,6.209 5.856,5.857 5.856,5.272 5.847,5.111 5.838,4.949 5.817,4.884 5.755,4.884 5.679,4.884 5.668,4.96 5.668,5.111 5.668,5.527 5.496,5.964 5.218,6.199 4.847,6.516 4.025,6.806 3.087,6.806 1.666,6.806 1.006,6.389 0.629,6.029 -0.15,5.282 -0.329,4.332 -0.329,3.243 c 0,-2.039 1.57,-3.907 3.85,-3.907 0.8,0 1.43,0.096 1.855,0.536 0.228,0.236 0.367,0.703 0.398,0.896 0.022,0.119 0.043,0.163 0.107,0.163 0.051,0 0.07,-0.076 0.07,-0.163 C 5.951,0.692 5.827,-0.234 5.721,-0.6 5.658,-0.798 5.636,-0.82 5.442,-0.905 5.013,-1.076 4.203,-1.152 3.521,-1.152 1.921,-1.152 0.843,-0.756 0,0"
             style="fill:#231f20;fill-opacity:1;fill-rule:nonzero;stroke:none"
             id="path9790" />
        </g>
        <g
           id="g9792"
           transform="translate(100.675,16.043)">
          <path
             inkscape:connector-curvature="0"
             d="m 0,0 c 0,-1.023 0,-1.868 0.053,-2.314 0.032,-0.309 0.098,-0.541 0.418,-0.584 0.147,-0.021 0.381,-0.042 0.478,-0.042 0.066,0 0.085,-0.034 0.085,-0.066 0,-0.053 -0.053,-0.085 -0.17,-0.085 -0.586,0 -1.257,0.032 -1.31,0.032 -0.053,0 -0.727,-0.032 -1.048,-0.032 -0.117,0 -0.17,0.022 -0.17,0.085 0,0.032 0.02,0.066 0.085,0.066 0.098,0 0.227,0.021 0.322,0.042 0.211,0.043 0.264,0.275 0.307,0.584 0.055,0.446 0.055,1.291 0.055,2.314 l 0,1.122 c 0,0.043 -0.034,0.064 -0.066,0.064 l -4.524,0 c -0.032,0 -0.062,-0.011 -0.062,-0.064 l 0,-1.122 c 0,-1.023 0,-1.868 0.051,-2.314 0.032,-0.309 0.097,-0.541 0.42,-0.584 0.15,-0.021 0.382,-0.042 0.476,-0.042 0.065,0 0.088,-0.034 0.088,-0.066 0,-0.053 -0.055,-0.085 -0.172,-0.085 -0.585,0 -1.258,0.032 -1.311,0.032 -0.053,0 -0.724,-0.032 -1.045,-0.032 -0.118,0 -0.173,0.022 -0.173,0.085 0,0.032 0.023,0.066 0.087,0.066 0.095,0 0.223,0.021 0.32,0.042 0.216,0.043 0.269,0.275 0.311,0.584 0.052,0.446 0.052,1.291 0.052,2.314 l 0,1.878 c 0,1.664 0,1.965 -0.021,2.306 -0.022,0.362 -0.105,0.534 -0.459,0.608 -0.085,0.021 -0.267,0.033 -0.365,0.033 -0.042,0 -0.083,0.02 -0.083,0.064 0,0.064 0.052,0.087 0.169,0.087 0.483,0 1.154,-0.034 1.207,-0.034 0.053,0 0.726,0.034 1.046,0.034 0.12,0 0.172,-0.023 0.172,-0.087 0,-0.044 -0.043,-0.064 -0.085,-0.064 -0.075,0 -0.14,-0.012 -0.269,-0.033 C -5.42,4.739 -5.505,4.557 -5.528,4.184 -5.547,3.843 -5.547,3.542 -5.547,1.878 l 0,-0.225 c 0,-0.051 0.03,-0.06 0.062,-0.06 l 4.524,0 c 0.032,0 0.066,0.009 0.066,0.06 l 0,0.225 c 0,1.664 0,1.965 -0.023,2.306 -0.022,0.362 -0.107,0.534 -0.455,0.608 -0.087,0.021 -0.271,0.033 -0.365,0.033 -0.044,0 -0.089,0.02 -0.089,0.064 0,0.064 0.055,0.087 0.174,0.087 0.48,0 1.154,-0.034 1.207,-0.034 0.053,0 0.724,0.034 1.043,0.034 0.117,0 0.17,-0.023 0.17,-0.087 C 0.767,4.845 0.724,4.825 0.682,4.825 0.608,4.825 0.546,4.813 0.42,4.792 0.128,4.739 0.041,4.557 0.022,4.184 0,3.843 0,3.542 0,1.878 L 0,0"
             style="fill:#231f20;fill-opacity:1;fill-rule:nonzero;stroke:none"
             id="path9794" />
        </g>
        <g
           id="g9796"
           transform="translate(104.763,14.402)">
          <path
             inkscape:connector-curvature="0"
             d="M 0,0 C 0.021,-0.876 0.124,-1.152 0.414,-1.236 0.618,-1.29 0.853,-1.299 0.947,-1.299 1,-1.299 1.03,-1.32 1.03,-1.365 1.03,-1.429 0.968,-1.45 0.842,-1.45 c -0.61,0 -1.033,0.032 -1.131,0.032 -0.097,0 -0.545,-0.032 -1.025,-0.032 -0.108,0 -0.171,0.009 -0.171,0.085 0,0.045 0.031,0.066 0.085,0.066 0.086,0 0.279,0.009 0.44,0.063 0.264,0.073 0.317,0.381 0.317,1.353 l 0.013,6.112 c 0,0.419 0.031,0.535 0.116,0.535 0.085,0 0.269,-0.234 0.376,-0.342 C 0.021,6.242 1.611,4.523 3.253,2.763 4.31,1.63 5.471,0.333 5.813,-0.023 L 5.694,5.398 C 5.686,6.09 5.608,6.327 5.28,6.412 5.089,6.454 4.843,6.466 4.756,6.466 4.682,6.466 4.67,6.497 4.67,6.541 c 0,0.064 0.086,0.076 0.214,0.076 0.479,0 0.993,-0.034 1.111,-0.034 0.119,0 0.469,0.034 0.907,0.034 0.117,0 0.191,-0.012 0.191,-0.076 0,-0.044 -0.043,-0.075 -0.115,-0.075 -0.055,0 -0.129,0 -0.259,-0.033 C 6.367,6.359 6.323,6.121 6.323,5.484 L 6.302,-0.768 c 0,-0.705 -0.022,-0.756 -0.096,-0.756 -0.083,0 -0.209,0.117 -0.779,0.681 C 5.312,-0.735 3.774,0.83 2.646,2.048 1.407,3.379 0.2,4.727 -0.138,5.111 L 0,0"
             style="fill:#231f20;fill-opacity:1;fill-rule:nonzero;stroke:none"
             id="path9798" />
        </g>
        <g
           id="g9800"
           transform="translate(115.471,16.043)">
          <path
             inkscape:connector-curvature="0"
             d="M 0,0 C 0,-1.023 0,-1.868 0.054,-2.314 0.086,-2.623 0.15,-2.855 0.472,-2.898 0.621,-2.919 0.855,-2.94 0.95,-2.94 c 0.064,0 0.085,-0.034 0.085,-0.066 0,-0.053 -0.053,-0.085 -0.17,-0.085 -0.587,0 -1.258,0.032 -1.311,0.032 -0.054,0 -0.725,-0.032 -1.047,-0.032 -0.118,0 -0.171,0.022 -0.171,0.085 0,0.032 0.021,0.066 0.085,0.066 0.097,0 0.226,0.021 0.322,0.042 0.212,0.043 0.267,0.275 0.308,0.584 0.051,0.446 0.051,1.291 0.051,2.314 l 0,1.878 c 0,1.664 0,1.965 -0.019,2.306 -0.02,0.362 -0.128,0.544 -0.361,0.597 -0.117,0.032 -0.259,0.044 -0.333,0.044 -0.043,0 -0.085,0.02 -0.085,0.064 0,0.064 0.053,0.087 0.17,0.087 0.355,0 1.026,-0.034 1.08,-0.034 0.053,0 0.724,0.034 1.047,0.034 C 0.717,4.976 0.77,4.953 0.77,4.889 0.77,4.845 0.725,4.825 0.685,4.825 0.61,4.825 0.547,4.813 0.419,4.792 0.127,4.739 0.042,4.557 0.021,4.184 0,3.843 0,3.542 0,1.878 L 0,0"
             style="fill:#231f20;fill-opacity:1;fill-rule:nonzero;stroke:none"
             id="path9802" />
        </g>
        <g
           id="g9804"
           transform="translate(125.693,12.174)">
          <path
             inkscape:connector-curvature="0"
             d="m 0,0 c 1.728,-0.951 3.102,-1.432 4.396,-1.432 1.579,0 2.774,0.46 3.381,0.736 0.065,0.034 0.087,0.064 0.087,0.107 0,0.031 -0.022,0.063 -0.066,0.063 -0.032,0 -0.085,-0.021 -0.15,-0.044 -0.733,-0.294 -1.567,-0.412 -2.102,-0.412 -0.532,0 -2.152,0.054 -4.491,1.255 l -2.187,1.133 c 0.704,0.463 1.89,1.708 1.89,3.586 0,2.473 -1.793,4.001 -4.192,4.001 -2.945,0 -4.206,-2.445 -4.206,-4.174 0,-1.919 1.216,-4.191 4.174,-4.191 0.563,0 1.289,0.16 1.673,0.365 L 0,0 z m -6.627,5.119 c 0,2.335 1.336,3.512 3.117,3.512 1.685,0 3.243,-1.379 3.243,-3.94 0,-3.103 -1.986,-3.657 -2.945,-3.657 -1.921,0 -3.415,1.602 -3.415,4.085"
             style="fill:#231f20;fill-opacity:1;fill-rule:nonzero;stroke:none"
             id="path9806" />
        </g>
        <g
           id="g9808"
           transform="translate(128.467,17.921)">
          <path
             inkscape:connector-curvature="0"
             d="m 0,0 c 0,1.664 0,1.965 -0.021,2.306 -0.021,0.362 -0.106,0.533 -0.462,0.608 -0.085,0.021 -0.265,0.033 -0.361,0.033 -0.041,0 -0.085,0.02 -0.085,0.064 0,0.064 0.055,0.087 0.17,0.087 0.481,0 1.131,-0.034 1.228,-0.034 0.096,0 0.733,0.034 1.055,0.034 0.121,0 0.172,-0.023 0.172,-0.087 C 1.696,2.967 1.652,2.947 1.613,2.947 1.535,2.947 1.471,2.935 1.342,2.914 1.054,2.872 0.97,2.678 0.949,2.306 0.928,1.965 0.928,1.664 0.928,0 l 0,-1.492 c 0,-1.535 0.34,-2.201 0.802,-2.634 0.52,-0.494 1.002,-0.588 1.609,-0.588 0.65,0 1.289,0.308 1.675,0.77 0.49,0.605 0.617,1.514 0.617,2.613 l 0,1.331 c 0,1.664 0,1.965 -0.021,2.306 C 5.589,2.668 5.504,2.839 5.153,2.914 5.068,2.935 4.886,2.947 4.789,2.947 c -0.045,0 -0.085,0.02 -0.085,0.064 0,0.064 0.051,0.087 0.17,0.087 0.481,0 1.069,-0.034 1.133,-0.034 0.074,0 0.573,0.034 0.897,0.034 0.117,0 0.168,-0.023 0.168,-0.087 0,-0.044 -0.04,-0.064 -0.083,-0.064 -0.074,0 -0.14,0 -0.269,-0.033 C 6.43,2.861 6.346,2.678 6.325,2.306 6.302,1.965 6.302,1.664 6.302,0 l 0,-1.142 c 0,-1.149 -0.125,-2.432 -0.98,-3.19 -0.767,-0.681 -1.567,-0.787 -2.199,-0.787 -0.359,0 -1.437,0.042 -2.195,0.757 C 0.404,-3.859 0,-3.112 0,-1.556 L 0,0"
             style="fill:#231f20;fill-opacity:1;fill-rule:nonzero;stroke:none"
             id="path9810" />
        </g>
        <g
           id="g9812"
           transform="translate(137.94,17.921)">
          <path
             inkscape:connector-curvature="0"
             d="m 0,0 c 0,1.664 0,1.965 -0.022,2.306 -0.021,0.362 -0.106,0.533 -0.46,0.608 -0.083,0.021 -0.264,0.033 -0.361,0.033 -0.042,0 -0.085,0.02 -0.085,0.064 0,0.064 0.053,0.087 0.17,0.087 0.48,0 1.152,-0.034 1.205,-0.034 0.073,0 2.199,0 2.443,0.011 0.202,0.01 0.372,0.034 0.459,0.054 0.053,0.01 0.097,0.051 0.15,0.051 0.034,0 0.043,-0.041 0.043,-0.095 C 3.542,3.011 3.489,2.883 3.455,2.583 3.446,2.477 3.423,2.007 3.402,1.879 3.391,1.825 3.37,1.76 3.328,1.76 3.262,1.76 3.241,1.814 3.241,1.9 3.241,1.975 3.232,2.158 3.177,2.285 3.105,2.455 2.997,2.583 2.421,2.645 2.241,2.668 1.078,2.678 0.959,2.678 0.918,2.678 0.895,2.645 0.895,2.57 l 0,-2.94 c 0,-0.076 0.013,-0.108 0.064,-0.108 0.138,0 1.45,0 1.698,0.021 0.255,0.022 0.403,0.045 0.497,0.149 0.078,0.083 0.119,0.136 0.163,0.136 0.032,0 0.053,-0.021 0.053,-0.085 0,-0.058 -0.053,-0.242 -0.085,-0.596 -0.023,-0.216 -0.044,-0.606 -0.044,-0.68 0,-0.088 0,-0.205 -0.075,-0.205 -0.051,0 -0.074,0.042 -0.074,0.097 0,0.108 0,0.214 -0.041,0.352 -0.044,0.147 -0.139,0.328 -0.555,0.37 -0.287,0.034 -1.344,0.055 -1.525,0.055 -0.053,0 -0.076,-0.032 -0.076,-0.074 l 0,-0.94 c 0,-0.359 -0.009,-1.599 0,-1.825 0.032,-0.735 0.195,-0.875 1.238,-0.875 0.276,0 0.747,0 1.021,0.119 0.282,0.117 0.411,0.333 0.483,0.766 0.023,0.119 0.045,0.162 0.096,0.162 0.065,0 0.065,-0.085 0.065,-0.162 0,-0.083 -0.085,-0.808 -0.138,-1.03 -0.074,-0.28 -0.161,-0.28 -0.578,-0.28 -1.613,0 -2.325,0.066 -2.635,0.066 -0.053,0 -0.725,-0.032 -1.044,-0.032 -0.117,0 -0.17,0.021 -0.17,0.085 0,0.032 0.021,0.066 0.085,0.066 0.096,0 0.223,0.021 0.315,0.042 0.216,0.043 0.269,0.275 0.314,0.584 C 0,-3.746 0,-2.901 0,-1.878 L 0,0"
             style="fill:#231f20;fill-opacity:1;fill-rule:nonzero;stroke:none"
             id="path9814" />
        </g>
        <g
           id="g9816"
           transform="translate(1.0081,5.1229)">
          <path
             inkscape:connector-curvature="0"
             d="m 0,0 c 0,1.6622 0,1.9596 -0.0213,2.303 -0.02121,0.3647 -0.10623,0.5311 -0.45843,0.6054 -0.08501,0.0213 -0.26646,0.0319 -0.36335,0.0319 -0.04205,0 -0.08456,0.0212 -0.08456,0.0637 0,0.0656 0.05358,0.0868 0.17085,0.0868 0.47972,0 1.15149,-0.0337 1.20509,-0.0337 0.2132,0 2.3787,0 2.6247,0.0125 0.2027,0.0106 0.3731,0.0106 0.4687,0.0424 0.0654,0.0213 0.1075,0.0637 0.1495,0.0637 0.0438,0 0.0647,-0.0424 0.0647,-0.0955 C 3.7559,3.004 3.7023,2.8766 3.67,2.581 3.6602,2.4729 3.6386,2.0021 3.6165,1.8782 3.6071,1.8251 3.585,1.7595 3.5319,1.7595 3.4783,1.7595 3.4576,1.8127 3.4576,1.8888 3.4576,1.972 3.4253,2.1525 3.3611,2.2907 3.297,2.4305 3.0509,2.6235 2.6358,2.6341 L 0.9922,2.6677 c -0.0633,0 -0.0961,-0.0336 -0.0961,-0.1204 l 0,-2.9456 c 0,-0.0655 0.0115,-0.0956 0.0748,-0.0956 l 1.3662,0.0106 c 0.181,0 0.331,0 0.4801,0.0106 0.2558,0.0213 0.3948,0.0531 0.4899,0.193 0.0433,0.0549 0.0753,0.108 0.1182,0.108 0.042,0 0.053,-0.0336 0.053,-0.0867 0,-0.0637 -0.053,-0.2479 -0.0858,-0.5948 -0.0208,-0.2142 -0.0421,-0.6444 -0.0421,-0.7187 0,-0.0921 0,-0.2 -0.0747,-0.2 -0.0536,0 -0.0743,0.0424 -0.0743,0.0955 -0.0106,0.1045 -0.0222,0.2532 -0.0642,0.3824 -0.054,0.1505 -0.224,0.3434 -0.555,0.3859 -0.2669,0.0318 -1.4294,0.0318 -1.6113,0.0318 -0.0535,0 -0.0748,-0.0194 -0.0748,-0.0955 l 0,-0.9081 c 0,-1.0232 0,-1.8658 0.054,-2.3155 0.0323,-0.3079 0.0956,-0.5434 0.416,-0.5859 0.1491,-0.0229 0.3846,-0.0442 0.4802,-0.0442 0.0633,0 0.084,-0.0318 0.084,-0.0637 0,-0.0549 -0.0522,-0.085 -0.1699,-0.085 -0.5863,0 -1.2581,0.0301 -1.3121,0.0301 -0.0536,0 -0.72537,-0.0301 -1.04531,-0.0301 -0.11818,0 -0.17039,0.0194 -0.17039,0.085 0,0.0319 0.02121,0.0637 0.08493,0.0637 0.09607,0 0.22395,0.0213 0.32084,0.0442 0.21244,0.0425 0.26601,0.278 0.30851,0.5859 C 0,-3.7457 0,-2.9031 0,-1.8799 L 0,0"
             style="fill:#231f20;fill-opacity:1;fill-rule:nonzero;stroke:none"
             id="path9818" />
        </g>
        <g
           id="g9820"
           transform="translate(7.3236,5.1229)">
          <path
             inkscape:connector-curvature="0"
             d="m 0,0 c 0,1.6622 0,1.9596 -0.0212,2.303 -0.0209,0.3647 -0.1062,0.5311 -0.4581,0.6054 -0.0863,0.0213 -0.2668,0.0319 -0.3638,0.0319 -0.0419,0 -0.0849,0.0212 -0.0849,0.0637 0,0.0656 0.0536,0.0868 0.1713,0.0868 0.4801,0 1.1519,-0.0337 1.2054,-0.0337 0.0735,0 2.1977,0 2.4433,0.0125 0.202,0.0106 0.373,0.0318 0.459,0.053 0.052,0.0107 0.096,0.0531 0.149,0.0531 0.032,0 0.042,-0.0424 0.042,-0.0955 C 3.542,3.004 3.489,2.8766 3.457,2.581 3.447,2.4729 3.425,2.0021 3.403,1.8782 3.393,1.8251 3.371,1.7595 3.329,1.7595 3.265,1.7595 3.243,1.8127 3.243,1.8977 3.243,1.972 3.233,2.1525 3.179,2.2801 3.105,2.4535 2.998,2.581 2.4225,2.6447 2.2406,2.6677 1.0781,2.6783 0.9604,2.6783 0.9174,2.6783 0.8966,2.6447 0.8966,2.5704 l 0,-2.9456 c 0,-0.0762 0.0106,-0.1081 0.0638,-0.1081 0.1389,0 1.4506,0 1.6967,0.0195 0.2559,0.023 0.4049,0.0442 0.5009,0.1505 0.075,0.0885 0.118,0.1416 0.16,0.1416 0.033,0 0.053,-0.0213 0.053,-0.0867 0,-0.0637 -0.053,-0.2479 -0.085,-0.5948 -0.021,-0.2142 -0.043,-0.6125 -0.043,-0.6851 0,-0.085 0,-0.2 -0.074,-0.2 -0.053,0 -0.075,0.0424 -0.075,0.0955 0,0.1045 0,0.209 -0.043,0.3488 -0.042,0.1505 -0.138,0.3328 -0.5541,0.3753 -0.2886,0.0318 -1.344,0.0531 -1.5259,0.0531 -0.0536,0 -0.0744,-0.0301 -0.0744,-0.0744 l 0,-0.9399 c 0,-0.3647 -0.0106,-1.5985 0,-1.8233 0.0323,-0.7364 0.1921,-0.8744 1.2374,-0.8744 0.277,0 0.747,0 1.024,0.1185 0.278,0.1168 0.406,0.3275 0.481,0.7665 0.021,0.1186 0.042,0.161 0.095,0.161 0.064,0 0.064,-0.0867 0.064,-0.161 0,-0.0867 -0.085,-0.8107 -0.138,-1.0356 -0.075,-0.2779 -0.16,-0.2779 -0.576,-0.2779 -1.6112,0 -2.3263,0.062 -2.6353,0.062 -0.0535,0 -0.7253,-0.0301 -1.0457,-0.0301 -0.1177,0 -0.1712,0.0194 -0.1712,0.085 0,0.0319 0.0221,0.0637 0.0858,0.0637 0.0956,0 0.224,0.0213 0.3195,0.0442 0.2134,0.0425 0.2673,0.278 0.3102,0.5859 C 0,-3.7457 0,-2.9031 0,-1.8799 L 0,0 z m 3.094,4.5441 c 0.053,-0.0956 0,-0.1293 -0.043,-0.1293 -0.031,0 -0.138,0.0231 -0.32,0 C 2.2083,4.3617 1.4622,4.1157 1.1099,3.9652 1.0356,3.9334 0.971,3.9121 0.9498,3.9121 c -0.0209,0 -0.0532,0.0213 -0.0532,0.0638 0,0.0318 0.0208,0.0548 0.0744,0.0867 0.385,0.2673 1.3771,0.8644 1.4515,0.9064 0.181,0.108 0.2452,0.14 0.2985,0.14 0.032,0 0.053,-0.021 0.106,-0.098 0.075,-0.106 0.15,-0.2563 0.267,-0.4669"
             style="fill:#231f20;fill-opacity:1;fill-rule:nonzero;stroke:none"
             id="path9822" />
        </g>
        <g
           id="g9824"
           transform="translate(13.832,3.243)">
          <path
             inkscape:connector-curvature="0"
             d="m 0,0 c 0,-1.0232 0,-1.8658 -0.054,-2.3155 -0.042,-0.3079 -0.096,-0.5434 -0.31,-0.5859 -0.095,-0.0229 -0.223,-0.0442 -0.319,-0.0442 -0.064,0 -0.085,-0.0318 -0.085,-0.0637 0,-0.0656 0.053,-0.085 0.171,-0.085 0.319,0 0.992,0.0301 1.045,0.0301 0.106,0 1.45,-0.1257 2.368,-0.1257 1.814,0 2.773,0.7488 3.234,1.2267 0.597,0.6285 1.151,1.664 1.151,3.0093 0,1.2675 -0.502,2.1526 -1.035,2.712 C 4.896,5.068 2.945,4.9707 1.889,4.9707 1.248,4.9707 0.576,4.937 0.448,4.937 c -0.054,0 -0.726,0.0337 -1.206,0.0337 -0.117,0 -0.171,-0.0212 -0.171,-0.0868 0,-0.0425 0.044,-0.0637 0.086,-0.0637 0.096,0 0.277,-0.0106 0.362,-0.0319 C -0.128,4.714 -0.043,4.5476 -0.021,4.1829 0,3.8395 0,3.5421 0,1.8799 L 0,0 z m 0.896,2.0498 c 0,0.8232 0,1.9065 0.011,2.2712 0,0.1186 0.031,0.1717 0.127,0.2142 0.086,0.0425 0.481,0.0761 0.694,0.0761 1.27,0 2.487,-0.1504 3.488,-1.209 0.438,-0.4585 1.025,-1.333 1.025,-2.6872 0,-0.9824 -0.299,-2.0074 -0.854,-2.549 C 4.758,-2.4624 3.84,-2.827 2.848,-2.827 c -1.258,0 -1.675,0.2248 -1.814,0.4266 -0.085,0.1186 -0.107,0.5435 -0.116,0.8126 -0.011,0.1982 -0.022,1.1806 -0.022,2.3136 l 0,1.324"
             style="fill:#231f20;fill-opacity:1;fill-rule:nonzero;stroke:none"
             id="path9826" />
        </g>
        <g
           id="g9828"
           transform="translate(23.187,5.1229)">
          <path
             inkscape:connector-curvature="0"
             d="m 0,0 c 0,1.6622 0,1.9596 -0.021,2.303 -0.021,0.3647 -0.107,0.5311 -0.459,0.6054 -0.085,0.0213 -0.266,0.0319 -0.363,0.0319 -0.042,0 -0.085,0.0212 -0.085,0.0637 0,0.0656 0.053,0.0868 0.171,0.0868 0.479,0 1.152,-0.0337 1.206,-0.0337 0.074,0 2.197,0 2.443,0.0125 0.202,0.0106 0.372,0.0318 0.458,0.053 0.054,0.0107 0.096,0.0531 0.15,0.0531 0.032,0 0.042,-0.0424 0.042,-0.0955 C 3.542,3.004 3.488,2.8766 3.457,2.581 3.446,2.4729 3.425,2.0021 3.404,1.8782 3.393,1.8251 3.372,1.7595 3.33,1.7595 3.264,1.7595 3.243,1.8127 3.243,1.8977 3.243,1.972 3.233,2.1525 3.179,2.2801 3.105,2.4535 2.998,2.581 2.422,2.6447 2.241,2.6677 1.078,2.6783 0.96,2.6783 0.917,2.6783 0.897,2.6447 0.897,2.5704 l 0,-2.9456 c 0,-0.0762 0.011,-0.1081 0.063,-0.1081 0.139,0 1.452,0 1.697,0.0195 0.256,0.023 0.406,0.0442 0.501,0.1505 0.075,0.0885 0.118,0.1416 0.16,0.1416 0.032,0 0.054,-0.0213 0.054,-0.0867 0,-0.0637 -0.054,-0.2479 -0.086,-0.5948 -0.022,-0.2142 -0.043,-0.6125 -0.043,-0.6851 0,-0.085 0,-0.2 -0.074,-0.2 -0.054,0 -0.075,0.0424 -0.075,0.0955 0,0.1045 0,0.209 -0.042,0.3488 -0.043,0.1505 -0.139,0.3328 -0.556,0.3753 -0.287,0.0318 -1.343,0.0531 -1.525,0.0531 -0.054,0 -0.074,-0.0301 -0.074,-0.0744 l 0,-0.9399 c 0,-0.3647 -0.011,-1.5985 0,-1.8233 0.032,-0.7364 0.192,-0.8744 1.237,-0.8744 0.278,0 0.747,0 1.024,0.1185 0.278,0.1168 0.405,0.3275 0.48,0.7665 0.021,0.1186 0.044,0.161 0.096,0.161 0.064,0 0.064,-0.0867 0.064,-0.161 0,-0.0867 -0.086,-0.8107 -0.139,-1.0356 C 3.585,-5.0061 3.5,-5.0061 3.084,-5.0061 c -1.612,0 -2.325,0.062 -2.635,0.062 -0.054,0 -0.727,-0.0301 -1.046,-0.0301 -0.118,0 -0.17,0.0194 -0.17,0.085 0,0.0319 0.021,0.0637 0.085,0.0637 0.095,0 0.223,0.0213 0.32,0.0442 0.212,0.0425 0.266,0.278 0.309,0.5859 C 0,-3.7457 0,-2.9031 0,-1.8799 L 0,0 z m 3.094,4.5441 c 0.054,-0.0956 0,-0.1293 -0.042,-0.1293 -0.033,0 -0.139,0.0231 -0.321,0 C 2.209,4.3617 1.462,4.1157 1.11,3.9652 1.035,3.9334 0.971,3.9121 0.95,3.9121 c -0.021,0 -0.053,0.0213 -0.053,0.0638 0,0.0318 0.02,0.0548 0.074,0.0867 0.384,0.2673 1.376,0.8644 1.451,0.9064 0.181,0.108 0.246,0.14 0.299,0.14 0.032,0 0.053,-0.021 0.106,-0.098 C 2.902,4.905 2.976,4.7547 3.094,4.5441"
             style="fill:#231f20;fill-opacity:1;fill-rule:nonzero;stroke:none"
             id="path9830" />
        </g>
        <g
           id="g9832"
           transform="translate(29.695,3.243)">
          <path
             inkscape:connector-curvature="0"
             d="m 0,0 c 0,-1.0232 0,-1.8658 -0.053,-2.3155 -0.043,-0.3079 -0.096,-0.5434 -0.309,-0.5859 -0.096,-0.0229 -0.225,-0.0442 -0.321,-0.0442 -0.063,0 -0.085,-0.0318 -0.085,-0.0637 0,-0.0656 0.054,-0.085 0.171,-0.085 0.32,0 0.993,0.0301 1.003,0.0301 0.052,0 0.725,-0.0301 1.312,-0.0301 0.117,0 0.17,0.0301 0.17,0.085 0,0.0319 -0.021,0.0637 -0.084,0.0637 -0.097,0 -0.331,0.0213 -0.482,0.0442 -0.319,0.0425 -0.383,0.278 -0.415,0.5859 C 0.854,-1.8658 0.854,-1.0232 0.854,0 l 0,0.2566 c 0,0.0514 0.021,0.085 0.074,0.085 L 2.24,0.3203 c 0.064,0 0.097,-0.023 0.139,-0.0637 0.214,-0.2779 0.715,-0.9912 1.163,-1.5807 0.608,-0.8001 0.982,-1.3206 1.44,-1.5684 0.278,-0.1505 0.545,-0.2018 1.142,-0.2018 l 0.757,0 c 0.193,0 0.256,0.0194 0.256,0.085 0,0.0319 -0.042,0.0637 -0.096,0.0637 -0.064,0 -0.213,0 -0.416,0.0336 C 6.359,-2.8695 5.9,-2.7509 5.324,-2.1472 4.706,-1.4834 3.979,-0.5346 3.104,0.5859 4.065,1.471 4.395,2.2587 4.395,3.05 4.395,3.7882 3.926,4.3104 3.66,4.5034 3.094,4.9051 2.379,4.9707 1.707,4.9707 1.376,4.9707 0.566,4.937 0.448,4.937 c -0.052,0 -0.725,0.0337 -1.205,0.0337 -0.117,0 -0.171,-0.0212 -0.171,-0.0868 0,-0.0425 0.042,-0.0637 0.085,-0.0637 0.097,0 0.278,-0.0106 0.363,-0.0319 C -0.127,4.714 -0.043,4.5476 -0.022,4.1829 0,3.8395 0,3.5421 0,1.8799 L 0,0 z m 0.854,4.4396 c 0,0.0638 0.032,0.108 0.085,0.1275 0.106,0.0336 0.395,0.0654 0.715,0.0654 1.142,0 1.845,-0.8036 1.845,-2.1348 C 3.499,1.6869 3.222,1.1117 2.848,0.855 2.603,0.6815 2.304,0.6514 2.049,0.6514 c -0.47,0 -0.96,0.0744 -1.121,0.17 C 0.875,0.855 0.854,0.8957 0.854,0.9505 l 0,3.4891"
             style="fill:#231f20;fill-opacity:1;fill-rule:nonzero;stroke:none"
             id="path9834" />
        </g>
        <g
           id="g9836"
           transform="translate(36.854,1.3241)">
          <path
             inkscape:connector-curvature="0"
             d="m 0,0 c -0.193,-0.53289 -0.406,-0.93999 -0.897,-1.0054 -0.085,-0.0107 -0.235,-0.0213 -0.31,-0.0213 -0.052,0 -0.095,-0.0212 -0.095,-0.0637 0,-0.0656 0.064,-0.085 0.203,-0.085 0.501,0 1.088,0.0301 1.205,0.0301 0.118,0 0.576,-0.0301 0.833,-0.0301 0.095,0 0.159,0.0194 0.159,0.085 0,0.0425 -0.031,0.0637 -0.106,0.0637 l -0.107,0 c -0.181,0 -0.406,0.09731 -0.406,0.31161 0,0.1929 0.054,0.44429 0.149,0.71509 l 0.64,1.8888 C 1.291,1.9402 1.322,1.972 1.376,1.972 l 2.293,0 c 0.054,0 0.075,-0.0195 0.097,-0.062 l 0.992,-2.62509 c 0.064,-0.1718 0,-0.2674 -0.064,-0.29031 -0.043,-0.0107 -0.075,-0.0319 -0.075,-0.0744 0,-0.0655 0.117,-0.0655 0.32,-0.0762 0.736,-0.0194 1.515,-0.0194 1.675,-0.0194 0.118,0 0.213,0.0194 0.213,0.085 0,0.0531 -0.042,0.0637 -0.107,0.0637 -0.106,0 -0.266,0.0106 -0.427,0.06371 C 6.07,-0.8975 5.761,-0.7258 5.377,0.2248 4.726,1.8445 3.05,6.2523 2.89,6.6559 2.763,6.9869 2.72,7.04 2.656,7.04 2.592,7.04 2.549,6.9745 2.422,6.624 L 0,0 z m 1.492,2.3544 c -0.03,0 -0.052,0.0212 -0.03,0.0761 L 2.4,5.3124 c 0.053,0.161 0.106,0.161 0.159,0 L 3.574,2.4305 C 3.584,2.3862 3.584,2.3544 3.53,2.3544 l -2.038,0"
             style="fill:#231f20;fill-opacity:1;fill-rule:nonzero;stroke:none"
             id="path9838" />
        </g>
        <g
           id="g9840"
           transform="translate(46.103,3.2217)">
          <path
             inkscape:connector-curvature="0"
             d="m 0,0 c 0,-1.5665 0.043,-2.2535 0.234,-2.4411 0.172,-0.1716 0.449,-0.246 1.281,-0.246 0.565,0 1.034,0.0107 1.291,0.3204 0.138,0.1663 0.245,0.4354 0.277,0.639 0.01,0.0867 0.032,0.1399 0.097,0.1399 0.053,0 0.063,-0.0426 0.063,-0.1611 0,-0.1186 -0.075,-0.7559 -0.16,-1.0674 -0.074,-0.2479 -0.106,-0.2886 -0.672,-0.2886 -1.536,0 -2.241,0.062 -2.859,0.062 -0.096,0 -0.725,-0.0301 -1.045,-0.0301 -0.118,0 -0.171,0.0194 -0.171,0.085 0,0.0319 0.021,0.0637 0.085,0.0637 0.096,0 0.224,0.0213 0.32,0.0442 0.213,0.0425 0.267,0.278 0.31,0.5859 0.053,0.4497 0.053,1.2923 0.053,2.3155 l 0,1.8799 c 0,1.6622 0,1.9596 -0.021,2.303 -0.022,0.3647 -0.107,0.5311 -0.458,0.6054 -0.087,0.0213 -0.268,0.0319 -0.364,0.0319 -0.043,0 -0.085,0.0212 -0.085,0.0637 0,0.0656 0.053,0.0868 0.171,0.0868 0.48,0 1.152,-0.0337 1.205,-0.0337 0.053,0 0.833,0.0337 1.153,0.0337 0.116,0 0.17,-0.0212 0.17,-0.0868 C 0.875,4.8627 0.832,4.8415 0.789,4.8415 0.715,4.8415 0.565,4.8309 0.437,4.8096 0.128,4.7583 0.043,4.5795 0.021,4.2042 0,3.8608 0,3.5634 0,1.9012 L 0,0"
             style="fill:#231f20;fill-opacity:1;fill-rule:nonzero;stroke:none"
             id="path9842" />
        </g>
        <g
           id="g9844"
           transform="translate(51.522,5.1229)">
          <path
             inkscape:connector-curvature="0"
             d="m 0,0 c 0,1.6622 0,1.9596 -0.022,2.303 -0.021,0.3647 -0.105,0.5311 -0.458,0.6054 -0.085,0.0213 -0.266,0.0319 -0.363,0.0319 -0.042,0 -0.085,0.0212 -0.085,0.0637 0,0.0656 0.054,0.0868 0.17,0.0868 0.481,0 1.153,-0.0337 1.206,-0.0337 0.074,0 2.199,0 2.444,0.0125 0.202,0.0106 0.373,0.0318 0.458,0.053 0.053,0.0107 0.095,0.0531 0.149,0.0531 0.033,0 0.043,-0.0424 0.043,-0.0955 C 3.542,3.004 3.489,2.8766 3.457,2.581 3.445,2.4729 3.424,2.0021 3.403,1.8782 3.393,1.8251 3.371,1.7595 3.329,1.7595 3.265,1.7595 3.243,1.8127 3.243,1.8977 3.243,1.972 3.233,2.1525 3.179,2.2801 3.105,2.4535 2.998,2.581 2.422,2.6447 2.24,2.6677 1.078,2.6783 0.96,2.6783 0.918,2.6783 0.896,2.6447 0.896,2.5704 l 0,-2.9456 c 0,-0.0762 0.011,-0.1081 0.064,-0.1081 0.139,0 1.452,0 1.696,0.0195 0.256,0.023 0.406,0.0442 0.501,0.1505 0.076,0.0885 0.118,0.1416 0.161,0.1416 0.032,0 0.053,-0.0213 0.053,-0.0867 0,-0.0637 -0.053,-0.2479 -0.085,-0.5948 -0.021,-0.2142 -0.043,-0.6125 -0.043,-0.6851 0,-0.085 0,-0.2 -0.074,-0.2 -0.053,0 -0.075,0.0424 -0.075,0.0955 0,0.1045 0,0.209 -0.043,0.3488 -0.043,0.1505 -0.139,0.3328 -0.554,0.3753 -0.289,0.0318 -1.345,0.0531 -1.527,0.0531 -0.052,0 -0.074,-0.0301 -0.074,-0.0744 l 0,-0.9399 c 0,-0.3647 -0.01,-1.5985 0,-1.8233 0.032,-0.7364 0.193,-0.8744 1.238,-0.8744 0.278,0 0.746,0 1.023,0.1185 0.278,0.1168 0.407,0.3275 0.481,0.7665 0.021,0.1186 0.043,0.161 0.097,0.161 0.063,0 0.063,-0.0867 0.063,-0.161 0,-0.0867 -0.084,-0.8107 -0.139,-1.0356 -0.074,-0.2779 -0.16,-0.2779 -0.576,-0.2779 -1.611,0 -2.325,0.062 -2.635,0.062 -0.053,0 -0.725,-0.0301 -1.045,-0.0301 -0.118,0 -0.171,0.0194 -0.171,0.085 0,0.0319 0.022,0.0637 0.085,0.0637 0.096,0 0.225,0.0213 0.32,0.0442 0.214,0.0425 0.266,0.278 0.31,0.5859 C 0,-3.7457 0,-2.9031 0,-1.8799 L 0,0"
             style="fill:#231f20;fill-opacity:1;fill-rule:nonzero;stroke:none"
             id="path9846" />
        </g>
        <g
           id="g9848"
           transform="translate(61.496,3.243)">
          <path
             inkscape:connector-curvature="0"
             d="m 0,0 c 0,-1.0232 0,-1.8658 -0.053,-2.3155 -0.042,-0.3079 -0.096,-0.5434 -0.309,-0.5859 -0.097,-0.0229 -0.224,-0.0442 -0.319,-0.0442 -0.065,0 -0.086,-0.0318 -0.086,-0.0637 0,-0.0656 0.053,-0.085 0.17,-0.085 0.32,0 0.993,0.0301 1.046,0.0301 0.106,0 1.451,-0.1257 2.369,-0.1257 1.811,0 2.773,0.7488 3.232,1.2267 0.597,0.6285 1.151,1.664 1.151,3.0093 0,1.2675 -0.5,2.1526 -1.035,2.712 -1.269,1.3099 -3.221,1.2126 -4.277,1.2126 -0.64,0 -1.312,-0.0337 -1.44,-0.0337 -0.053,0 -0.726,0.0337 -1.205,0.0337 -0.118,0 -0.171,-0.0212 -0.171,-0.0868 0,-0.0425 0.042,-0.0637 0.084,-0.0637 0.097,0 0.279,-0.0106 0.364,-0.0319 C -0.128,4.714 -0.041,4.5476 -0.02,4.1829 0,3.8395 0,3.5421 0,1.8799 L 0,0 z m 0.896,2.0498 c 0,0.8232 0,1.9065 0.011,2.2712 0,0.1186 0.032,0.1717 0.129,0.2142 0.084,0.0425 0.48,0.0761 0.693,0.0761 1.269,0 2.485,-0.1504 3.488,-1.209 0.438,-0.4585 1.024,-1.333 1.024,-2.6872 0,-0.9824 -0.299,-2.0074 -0.853,-2.549 C 4.759,-2.4624 3.841,-2.827 2.849,-2.827 c -1.259,0 -1.675,0.2248 -1.813,0.4266 -0.086,0.1186 -0.108,0.5435 -0.119,0.8126 -0.01,0.1982 -0.021,1.1806 -0.021,2.3136 l 0,1.324"
             style="fill:#231f20;fill-opacity:1;fill-rule:nonzero;stroke:none"
             id="path9850" />
        </g>
        <g
           id="g9852"
           transform="translate(71.28,5.1229)">
          <path
             inkscape:connector-curvature="0"
             d="m 0,0 c 0,1.6622 0,1.9596 -0.021,2.303 -0.022,0.3647 -0.106,0.5311 -0.459,0.6054 -0.085,0.0213 -0.268,0.0319 -0.362,0.0319 -0.044,0 -0.086,0.0212 -0.086,0.0637 0,0.0656 0.053,0.0868 0.17,0.0868 0.48,0 1.152,-0.0337 1.206,-0.0337 0.075,0 2.198,0 2.441,0.0125 0.204,0.0106 0.377,0.0318 0.462,0.053 0.053,0.0107 0.095,0.0531 0.148,0.0531 0.033,0 0.044,-0.0424 0.044,-0.0955 C 3.543,3.004 3.488,2.8766 3.456,2.581 3.446,2.4729 3.424,2.0021 3.404,1.8782 3.394,1.8251 3.372,1.7595 3.332,1.7595 3.266,1.7595 3.243,1.8127 3.243,1.8977 3.243,1.972 3.234,2.1525 3.181,2.2801 3.104,2.4535 2.998,2.581 2.424,2.6447 2.241,2.6677 1.076,2.6783 0.96,2.6783 0.918,2.6783 0.898,2.6447 0.898,2.5704 l 0,-2.9456 c 0,-0.0762 0.008,-0.1081 0.062,-0.1081 0.138,0 1.451,0 1.696,0.0195 0.256,0.023 0.406,0.0442 0.503,0.1505 0.075,0.0885 0.118,0.1416 0.16,0.1416 0.032,0 0.053,-0.0213 0.053,-0.0867 0,-0.0637 -0.053,-0.2479 -0.085,-0.5948 -0.021,-0.2142 -0.044,-0.6125 -0.044,-0.6851 0,-0.085 0,-0.2 -0.074,-0.2 -0.053,0 -0.076,0.0424 -0.076,0.0955 0,0.1045 0,0.209 -0.042,0.3488 -0.042,0.1505 -0.139,0.3328 -0.553,0.3753 -0.29,0.0318 -1.347,0.0531 -1.527,0.0531 -0.053,0 -0.073,-0.0301 -0.073,-0.0744 l 0,-0.9399 c 0,-0.3647 -0.013,-1.5985 0,-1.8233 0.031,-0.7364 0.187,-0.8744 1.235,-0.8744 0.278,0 0.747,0 1.026,0.1185 0.275,0.1168 0.405,0.3275 0.479,0.7665 0.019,0.1186 0.041,0.161 0.094,0.161 0.065,0 0.065,-0.0867 0.065,-0.161 0,-0.0867 -0.087,-0.8107 -0.14,-1.0356 -0.072,-0.2779 -0.158,-0.2779 -0.573,-0.2779 -1.611,0 -2.325,0.062 -2.636,0.062 -0.054,0 -0.726,-0.0301 -1.045,-0.0301 -0.118,0 -0.17,0.0194 -0.17,0.085 0,0.0319 0.019,0.0637 0.084,0.0637 0.097,0 0.225,0.0213 0.321,0.0442 0.213,0.0425 0.266,0.278 0.308,0.5859 C 0,-3.7457 0,-2.9031 0,-1.8799 L 0,0"
             style="fill:#231f20;fill-opacity:1;fill-rule:nonzero;stroke:none"
             id="path9854" />
        </g>
        <g
           id="g9856"
           transform="translate(82.15,3.2217)">
          <path
             inkscape:connector-curvature="0"
             d="m 0,0 c 0,-1.5665 0.043,-2.2535 0.236,-2.4411 0.169,-0.1716 0.446,-0.246 1.279,-0.246 0.565,0 1.032,0.0107 1.291,0.3204 0.14,0.1663 0.246,0.4354 0.278,0.639 0.01,0.0867 0.032,0.1399 0.094,0.1399 0.053,0 0.065,-0.0426 0.065,-0.1611 0,-0.1186 -0.075,-0.7559 -0.159,-1.0674 -0.073,-0.2479 -0.107,-0.2886 -0.673,-0.2886 -1.537,0 -2.24,0.062 -2.857,0.062 -0.097,0 -0.727,-0.0301 -1.046,-0.0301 -0.119,0 -0.173,0.0194 -0.173,0.085 0,0.0319 0.022,0.0637 0.085,0.0637 0.097,0 0.228,0.0213 0.321,0.0442 0.212,0.0425 0.266,0.278 0.308,0.5859 0.055,0.4497 0.055,1.2923 0.055,2.3155 l 0,1.8799 c 0,1.6622 0,1.9596 -0.023,2.303 -0.021,0.3647 -0.106,0.5311 -0.456,0.6054 -0.085,0.0213 -0.268,0.0319 -0.363,0.0319 -0.045,0 -0.087,0.0212 -0.087,0.0637 0,0.0656 0.055,0.0868 0.172,0.0868 0.48,0 1.154,-0.0337 1.207,-0.0337 0.051,0 0.832,0.0337 1.151,0.0337 0.115,0 0.169,-0.0212 0.169,-0.0868 C 0.874,4.8627 0.83,4.8415 0.788,4.8415 0.714,4.8415 0.566,4.8309 0.439,4.8096 0.127,4.7583 0.043,4.5795 0.021,4.2042 0,3.8608 0,3.5634 0,1.9012 L 0,0"
             style="fill:#231f20;fill-opacity:1;fill-rule:nonzero;stroke:none"
             id="path9858" />
        </g>
        <g
           id="g9860"
           transform="translate(86.9,1.3241)">
          <path
             inkscape:connector-curvature="0"
             d="m 0,0 c -0.195,-0.53289 -0.409,-0.93999 -0.896,-1.0054 -0.088,-0.0107 -0.238,-0.0213 -0.313,-0.0213 -0.053,0 -0.097,-0.0212 -0.097,-0.0637 0,-0.0656 0.065,-0.085 0.205,-0.085 0.501,0 1.089,0.0301 1.207,0.0301 0.117,0 0.574,-0.0301 0.834,-0.0301 0.096,0 0.158,0.0194 0.158,0.085 0,0.0425 -0.031,0.0637 -0.105,0.0637 l -0.108,0 c -0.184,0 -0.409,0.09731 -0.409,0.31161 0,0.1929 0.053,0.44429 0.151,0.71509 L 1.266,1.8888 C 1.287,1.9402 1.319,1.972 1.372,1.972 l 2.298,0 c 0.053,0 0.072,-0.0195 0.095,-0.062 l 0.99,-2.62509 c 0.063,-0.1718 0,-0.2674 -0.064,-0.29031 -0.043,-0.0107 -0.073,-0.0319 -0.073,-0.0744 0,-0.0655 0.114,-0.0655 0.319,-0.0762 0.735,-0.0194 1.514,-0.0194 1.675,-0.0194 0.117,0 0.214,0.0194 0.214,0.085 0,0.0531 -0.045,0.0637 -0.108,0.0637 -0.106,0 -0.267,0.0106 -0.423,0.06371 C 6.068,-0.8975 5.757,-0.7258 5.376,0.2248 4.723,1.8445 3.048,6.2523 2.891,6.6559 2.763,6.9869 2.721,7.04 2.655,7.04 2.591,7.04 2.547,6.9745 2.42,6.624 L 0,0 z m 1.49,2.3544 c -0.031,0 -0.053,0.0212 -0.031,0.0761 l 0.938,2.8819 c 0.053,0.161 0.108,0.161 0.163,0 L 3.572,2.4305 C 3.585,2.3862 3.585,2.3544 3.53,2.3544 l -2.04,0"
             style="fill:#231f20;fill-opacity:1;fill-rule:nonzero;stroke:none"
             id="path9862" />
        </g>
        <g
           id="g9864"
           transform="translate(94.632,5.1229)">
          <path
             inkscape:connector-curvature="0"
             d="m 0,0 c 0,1.6622 0,1.9596 -0.021,2.303 -0.023,0.3647 -0.106,0.5311 -0.457,0.6054 -0.085,0.0213 -0.267,0.0319 -0.365,0.0319 -0.044,0 -0.086,0.0212 -0.086,0.0637 0,0.0656 0.054,0.0868 0.173,0.0868 0.478,0 1.131,-0.0337 1.225,-0.0337 0.096,0 0.738,0.0337 1.055,0.0337 0.119,0 0.17,-0.0212 0.17,-0.0868 C 1.694,2.9615 1.655,2.9403 1.611,2.9403 1.535,2.9403 1.471,2.9297 1.344,2.9084 1.057,2.8677 0.97,2.6783 0.949,2.303 0.929,1.9596 0.929,1.6622 0.929,0 l 0,-1.4976 c 0,-1.5365 0.342,-2.195 0.799,-2.634 0.524,-0.4904 1.003,-0.5859 1.611,-0.5859 0.649,0 1.294,0.3115 1.674,0.7665 0.492,0.6089 0.62,1.517 0.62,2.6145 L 5.633,0 c 0,1.6622 0,1.9596 -0.02,2.303 C 5.594,2.6677 5.505,2.8341 5.151,2.9084 5.066,2.9297 4.884,2.9403 4.792,2.9403 c -0.041,0 -0.085,0.0212 -0.085,0.0637 0,0.0656 0.053,0.0868 0.168,0.0868 0.48,0 1.066,-0.0337 1.131,-0.0337 0.075,0 0.577,0.0337 0.896,0.0337 0.117,0 0.172,-0.0212 0.172,-0.0868 0,-0.0425 -0.043,-0.0637 -0.087,-0.0637 -0.074,0 -0.138,0 -0.269,-0.0319 C 6.436,2.8571 6.348,2.6783 6.327,2.303 6.305,1.9596 6.305,1.6622 6.305,0 l 0,-1.1435 c 0,-1.156 -0.129,-2.4305 -0.98,-3.1882 -0.769,-0.6868 -1.567,-0.7912 -2.199,-0.7912 -0.361,0 -1.441,0.0425 -2.197,0.7594 C 0.407,-3.8643 0,-3.1191 0,-1.5596 L 0,0"
             style="fill:#231f20;fill-opacity:1;fill-rule:nonzero;stroke:none"
             id="path9866" />
        </g>
        <g
           id="g9868"
           transform="translate(103.421,0.2868)">
          <path
             inkscape:connector-curvature="0"
             d="m 0,0 c -0.149,0.0743 -0.159,0.11861 -0.159,0.40711 0,0.53279 0.042,0.96129 0.055,1.12939 0.01,0.1151 0.031,0.1699 0.085,0.1699 0.063,0 0.074,-0.0318 0.074,-0.1168 0,-0.0956 0,-0.2425 0.032,-0.393 0.161,-0.78949 0.865,-1.08869 1.579,-1.08869 1.025,0 1.524,0.73469 1.524,1.41799 0,0.7381 -0.306,1.163 -1.225,1.9189 L 1.483,3.843 C 0.356,4.7706 0.097,5.4309 0.097,6.1549 c 0,1.1435 0.855,1.9224 2.208,1.9224 0.417,0 0.727,-0.0425 0.993,-0.1079 C 3.5,7.9269 3.586,7.9163 3.671,7.9163 c 0.085,0 0.11,-0.0231 0.11,-0.0762 C 3.781,7.787 3.737,7.4383 3.737,6.7143 3.737,6.5408 3.716,6.4665 3.661,6.4665 3.597,6.4665 3.586,6.5213 3.576,6.6063 3.565,6.7338 3.5,7.0205 3.436,7.1391 3.372,7.256 3.085,7.7038 2.107,7.7038 1.367,7.7038 0.789,7.2453 0.789,6.4665 0.789,5.8592 1.09,5.4963 2.096,4.675 L 2.39,4.4378 C 3.65,3.4448 3.949,2.7845 3.949,1.933 3.949,1.494 3.781,0.68141 3.043,0.16101 2.583,-0.1611 2.009,-0.2868 1.432,-0.2868 0.929,-0.2868 0.441,-0.21249 0,0"
             style="fill:#231f20;fill-opacity:1;fill-rule:nonzero;stroke:none"
             id="path9870" />
        </g>
        <g
           id="g9872"
           transform="translate(109.3,1.3241)">
          <path
             inkscape:connector-curvature="0"
             d="m 0,0 c -0.19,-0.53289 -0.404,-0.93999 -0.898,-1.0054 -0.085,-0.0107 -0.232,-0.0213 -0.304,-0.0213 -0.055,0 -0.098,-0.0212 -0.098,-0.0637 0,-0.0656 0.064,-0.085 0.202,-0.085 0.501,0 1.085,0.0301 1.204,0.0301 0.117,0 0.579,-0.0301 0.832,-0.0301 0.096,0 0.159,0.0194 0.159,0.085 0,0.0425 -0.032,0.0637 -0.104,0.0637 l -0.11,0 c -0.179,0 -0.4,0.09731 -0.4,0.31161 0,0.1929 0.053,0.44429 0.149,0.71509 L 1.271,1.8888 C 1.292,1.9402 1.326,1.972 1.379,1.972 l 2.292,0 c 0.051,0 0.073,-0.0195 0.094,-0.062 l 0.993,-2.62509 c 0.064,-0.1718 0,-0.2674 -0.064,-0.29031 -0.042,-0.0107 -0.076,-0.0319 -0.076,-0.0744 0,-0.0655 0.119,-0.0655 0.324,-0.0762 0.735,-0.0194 1.512,-0.0194 1.675,-0.0194 0.118,0 0.214,0.0194 0.214,0.085 0,0.0531 -0.044,0.0637 -0.108,0.0637 -0.106,0 -0.269,0.0106 -0.428,0.06371 C 6.07,-0.8975 5.762,-0.7258 5.376,0.2248 4.726,1.8445 3.052,6.2523 2.89,6.6559 2.763,6.9869 2.719,7.04 2.655,7.04 2.593,7.04 2.551,6.9745 2.423,6.624 L 0,0 z m 1.496,2.3544 c -0.032,0 -0.054,0.0212 -0.032,0.0761 l 0.94,2.8819 c 0.053,0.161 0.104,0.161 0.155,0 L 3.574,2.4305 C 3.584,2.3862 3.584,2.3544 3.529,2.3544 l -2.033,0"
             style="fill:#231f20;fill-opacity:1;fill-rule:nonzero;stroke:none"
             id="path9874" />
        </g>
        <g
           id="g9876"
           transform="translate(117.942,1.602)">
          <path
             inkscape:connector-curvature="0"
             d="m 0,0 c 0.023,-0.8762 0.127,-1.1542 0.416,-1.2409 0.205,-0.0531 0.437,-0.0637 0.533,-0.0637 0.053,0 0.086,-0.0212 0.086,-0.0637 0,-0.0656 -0.065,-0.085 -0.191,-0.085 -0.611,0 -1.034,0.0301 -1.131,0.0301 -0.097,0 -0.545,-0.0301 -1.025,-0.0301 -0.108,0 -0.172,0.0088 -0.172,0.085 0,0.0425 0.032,0.0637 0.085,0.0637 0.087,0 0.28,0.0106 0.439,0.0637 0.264,0.0761 0.319,0.3877 0.319,1.3559 l 0.009,6.1161 c 0,0.4124 0.034,0.531 0.118,0.531 0.087,0 0.27,-0.2372 0.377,-0.3434 C 0.023,6.2417 1.612,4.5228 3.253,2.7615 4.312,1.6321 5.47,0.3257 5.815,-0.0213 L 5.696,5.3991 C 5.684,6.0913 5.611,6.3249 5.282,6.4081 5.089,6.4506 4.841,6.4612 4.756,6.4612 c -0.074,0 -0.085,0.0318 -0.085,0.0743 0,0.0656 0.085,0.0762 0.214,0.0762 0.48,0 0.994,-0.0337 1.112,-0.0337 0.117,0 0.466,0.0337 0.907,0.0337 0.116,0 0.191,-0.0106 0.191,-0.0762 0,-0.0425 -0.043,-0.0743 -0.117,-0.0743 -0.053,0 -0.128,0 -0.257,-0.0319 C 6.367,6.355 6.326,6.1231 6.326,5.4805 L 6.305,-0.77 c 0,-0.7063 -0.023,-0.7577 -0.095,-0.7577 -0.084,0 -0.213,0.1168 -0.779,0.6851 C 5.312,-0.7364 3.776,0.832 2.644,2.0446 1.409,3.3793 0.202,4.7229 -0.137,5.1088 L 0,0"
             style="fill:#231f20;fill-opacity:1;fill-rule:nonzero;stroke:none"
             id="path9878" />
        </g>
        <g
           id="g9880"
           transform="translate(128.043,1.602)">
          <path
             inkscape:connector-curvature="0"
             d="m 0,0 c 0.022,-0.8762 0.13,-1.1542 0.419,-1.2409 0.202,-0.0531 0.435,-0.0637 0.533,-0.0637 0.053,0 0.085,-0.0212 0.085,-0.0637 0,-0.0656 -0.064,-0.085 -0.195,-0.085 -0.605,0 -1.034,0.0301 -1.129,0.0301 -0.096,0 -0.544,-0.0301 -1.023,-0.0301 -0.107,0 -0.17,0.0088 -0.17,0.085 0,0.0425 0.033,0.0637 0.086,0.0637 0.084,0 0.275,0.0106 0.434,0.0637 0.267,0.0761 0.322,0.3877 0.322,1.3559 l 0.011,6.1161 c 0,0.4124 0.032,0.531 0.117,0.531 0.085,0 0.267,-0.2372 0.371,-0.3434 C 0.022,6.2417 1.612,4.5228 3.255,2.7615 4.31,1.6321 5.475,0.3257 5.816,-0.0213 L 5.701,5.3991 C 5.689,6.0913 5.615,6.3249 5.283,6.4081 5.089,6.4506 4.845,6.4612 4.761,6.4612 c -0.074,0 -0.085,0.0318 -0.085,0.0743 0,0.0656 0.085,0.0762 0.213,0.0762 0.479,0 0.991,-0.0337 1.108,-0.0337 0.117,0 0.469,0.0337 0.906,0.0337 0.117,0 0.191,-0.0106 0.191,-0.0762 0,-0.0425 -0.04,-0.0743 -0.118,-0.0743 -0.053,0 -0.128,0 -0.253,-0.0319 C 6.372,6.355 6.328,6.1231 6.328,5.4805 L 6.307,-0.77 c 0,-0.7063 -0.023,-0.7577 -0.096,-0.7577 -0.087,0 -0.214,0.1168 -0.777,0.6851 C 5.314,-0.7364 3.781,0.832 2.646,2.0446 1.41,3.3793 0.205,4.7229 -0.139,5.1088 L 0,0"
             style="fill:#231f20;fill-opacity:1;fill-rule:nonzero;stroke:none"
             id="path9882" />
        </g>
        <g
           id="g9884"
           transform="translate(137.86,5.1229)">
          <path
             inkscape:connector-curvature="0"
             d="m 0,0 c 0,1.6622 0,1.9596 -0.021,2.303 -0.023,0.3647 -0.108,0.5311 -0.459,0.6054 -0.085,0.0213 -0.265,0.0319 -0.363,0.0319 -0.044,0 -0.085,0.0212 -0.085,0.0637 0,0.0656 0.053,0.0868 0.17,0.0868 0.478,0 1.154,-0.0337 1.206,-0.0337 0.074,0 2.198,0 2.444,0.0125 0.2,0.0106 0.369,0.0318 0.457,0.053 0.053,0.0107 0.096,0.0531 0.151,0.0531 0.031,0 0.042,-0.0424 0.042,-0.0955 C 3.542,3.004 3.489,2.8766 3.455,2.581 3.445,2.4729 3.423,2.0021 3.402,1.8782 3.392,1.8251 3.37,1.7595 3.326,1.7595 3.261,1.7595 3.241,1.8127 3.241,1.8977 3.241,1.972 3.229,2.1525 3.179,2.2801 3.103,2.4535 2.997,2.581 2.418,2.6447 2.239,2.6677 1.078,2.6783 0.961,2.6783 0.917,2.6783 0.896,2.6447 0.896,2.5704 l 0,-2.9456 c 0,-0.0762 0.012,-0.1081 0.065,-0.1081 0.138,0 1.448,0 1.696,0.0195 0.257,0.023 0.405,0.0442 0.501,0.1505 0.071,0.0885 0.115,0.1416 0.158,0.1416 0.033,0 0.054,-0.0213 0.054,-0.0867 0,-0.0637 -0.054,-0.2479 -0.086,-0.5948 -0.023,-0.2142 -0.043,-0.6125 -0.043,-0.6851 0,-0.085 0,-0.2 -0.072,-0.2 -0.055,0 -0.077,0.0424 -0.077,0.0955 0,0.1045 0,0.209 -0.042,0.3488 -0.041,0.1505 -0.136,0.3328 -0.554,0.3753 -0.29,0.0318 -1.344,0.0531 -1.524,0.0531 -0.055,0 -0.076,-0.0301 -0.076,-0.0744 l 0,-0.9399 c 0,-0.3647 -0.011,-1.5985 0,-1.8233 0.032,-0.7364 0.194,-0.8744 1.239,-0.8744 0.274,0 0.747,0 1.023,0.1185 0.276,0.1168 0.404,0.3275 0.481,0.7665 0.02,0.1186 0.041,0.161 0.096,0.161 0.064,0 0.064,-0.0867 0.064,-0.161 0,-0.0867 -0.087,-0.8107 -0.14,-1.0356 C 3.585,-5.0061 3.5,-5.0061 3.082,-5.0061 c -1.613,0 -2.326,0.062 -2.634,0.062 -0.052,0 -0.728,-0.0301 -1.043,-0.0301 -0.12,0 -0.172,0.0194 -0.172,0.085 0,0.0319 0.022,0.0637 0.084,0.0637 0.095,0 0.224,0.0213 0.32,0.0442 0.213,0.0425 0.266,0.278 0.308,0.5859 C 0,-3.7457 0,-2.9031 0,-1.8799 L 0,0"
             style="fill:#231f20;fill-opacity:1;fill-rule:nonzero;stroke:none"
             id="path9886" />
        </g>
      </g>
    </g>
  </g>
</svg>
